<svg xmlns="http://www.w3.org/2000/svg" xmlns:svg="http://www.w3.org/2000/svg" id="svg2" width="16" height="16" version="1.1" viewBox="0 0 16 16"><metadata id="metadata7"/><g id="layer1" transform="translate(0,-1036.3622)"><path style="fill:none;fill-rule:evenodd;stroke:#e0e0e0;stroke-width:2;stroke-linecap:butt;stroke-linejoin:round;stroke-opacity:1;stroke-miterlimit:4;stroke-dasharray:none" id="path4164" d="m 2,1049.3622 0,-10 8,0 4,5 -4,5 z"/><rect id="rect4162" width="1" height="4" x="4" y="1043.362" style="opacity:1;fill:#e0e0e0;fill-opacity:1;stroke:none;stroke-width:3;stroke-linecap:round;stroke-linejoin:round;stroke-miterlimit:4;stroke-dasharray:none;stroke-dashoffset:0;stroke-opacity:1"/><path style="fill:#e0e0e0;fill-rule:evenodd;stroke:none;stroke-width:1px;stroke-linecap:butt;stroke-linejoin:miter;stroke-opacity:1;fill-opacity:1" id="path4166" d="m 11,1044.3622 -2,-2 0,4 z"/><rect style="opacity:1;fill:#e0e0e0;fill-opacity:1;stroke:none;stroke-width:3;stroke-linecap:round;stroke-linejoin:round;stroke-miterlimit:4;stroke-dasharray:none;stroke-dashoffset:0;stroke-opacity:1" id="rect4168" width="1" height="4" x="7" y="1043.362"/><rect style="opacity:1;fill:#e0e0e0;fill-opacity:1;stroke:none;stroke-width:3;stroke-linecap:round;stroke-linejoin:round;stroke-miterlimit:4;stroke-dasharray:none;stroke-dashoffset:0;stroke-opacity:1" id="rect4170" width="2" height="1" x="5" y="1044.362"/><path style="opacity:1;fill:#e0e0e0;fill-opacity:1;stroke:none;stroke-width:2;stroke-linecap:round;stroke-linejoin:round;stroke-miterlimit:4;stroke-dasharray:none;stroke-dashoffset:0;stroke-opacity:1" id="path4172" d="M 6 5 C 4.8954305 5 4 5.8954 4 7 L 5 7 A 1 1 0 0 1 6 6 A 1 1 0 0 1 7 7 L 8 7 C 8 5.8954 7.1045695 5 6 5 z" transform="translate(0,1036.3622)"/></g></svg>