<svg xmlns="http://www.w3.org/2000/svg" xmlns:svg="http://www.w3.org/2000/svg" id="svg2" width="16" height="16" version="1.1" viewBox="0 0 16 16"><metadata id="metadata7"/><g id="layer1" transform="translate(0,-1036.3622)"><path id="path4146" d="m 2.920797,1046.3957 c -0.2637264,0.3 -0.4203983,0.7296 -0.4203983,1.2383 0,1.6277 -3.13814186,-0.1781 -0.337569,2.6703 0.8838207,0.899 2.6543881,0.6701 3.538224,-0.2288 0.8838352,-0.899 0.8838163,-2.3565 0,-3.2554 -1.1002211,-1.1191 -2.200058,-1.0845 -2.7802567,-0.4244 z m 2.3801743,-1.6103 2.4004918,2.4416 6.8013899,-6.9177 c 0.662863,-0.6742 0.662863,-1.7673 0,-2.4415 -0.662877,-0.6741 -1.737613,-0.6741 -2.400491,0 z" style="fill:#e0e0e0;fill-opacity:.99607843;stroke:none;stroke-width:4;stroke-linecap:round;stroke-linejoin:miter;stroke-miterlimit:4;stroke-dasharray:none;stroke-opacity:1"/><path style="opacity:1;fill:#e0e0e0;fill-opacity:.99607843;stroke:none;stroke-width:2;stroke-linecap:butt;stroke-linejoin:round;stroke-miterlimit:4;stroke-dasharray:none;stroke-dashoffset:0;stroke-opacity:1" id="path4160" d="M 3 1 A 2 2 0 0 0 1 3 L 2 3 A 1.0000174 1.0000174 0 0 1 3 2 L 3 1 z" transform="translate(0,1036.3622)"/><rect style="opacity:1;fill:#e0e0e0;fill-opacity:.99607843;stroke:none;stroke-width:2;stroke-linecap:butt;stroke-linejoin:round;stroke-miterlimit:4;stroke-dasharray:none;stroke-dashoffset:0;stroke-opacity:1" id="rect4164" width="6" height="1" x="3" y="1037.362"/><rect id="rect4166" width="6" height="1" x="1039.362" y="-2" transform="matrix(0,1,-1,0,0,0)" style="opacity:1;fill:#e0e0e0;fill-opacity:.99607843;stroke:none;stroke-width:2;stroke-linecap:butt;stroke-linejoin:round;stroke-miterlimit:4;stroke-dasharray:none;stroke-dashoffset:0;stroke-opacity:1"/><path style="opacity:1;fill:#e0e0e0;fill-opacity:.99607843;stroke:none;stroke-width:2;stroke-linecap:butt;stroke-linejoin:round;stroke-miterlimit:4;stroke-dasharray:none;stroke-dashoffset:0;stroke-opacity:1" id="path4169" d="m 13,1051.3622 a 2,2 0 0 0 2,-2 l 0,-6 -1,0 0,6 a 1.0000174,1.0000174 0 0 1 -1,1 l -6,0 0,1 6,0 z"/></g></svg>