<svg xmlns="http://www.w3.org/2000/svg" xmlns:svg="http://www.w3.org/2000/svg" id="svg2" width="16" height="16" version="1.1" viewBox="0 0 16 16"><metadata id="metadata7"/><g id="layer1" transform="translate(0,-1036.3622)"><path style="opacity:1;fill:#e0e0e0;fill-opacity:.99607843;stroke:none;stroke-width:2;stroke-linecap:round;stroke-linejoin:round;stroke-miterlimit:4;stroke-dasharray:none;stroke-dashoffset:0;stroke-opacity:.99607843" id="rect4156" d="M 2 1 A 1 1 0 0 0 1 2 L 1 14 A 1 1 0 0 0 2 15 L 14 15 A 1 1 0 0 0 15 14 L 15 2 A 1 1 0 0 0 14 1 L 2 1 z M 3 3 L 13 3 L 13 11 L 3 11 L 3 3 z" transform="translate(0,1036.3622)"/><path style="opacity:1;fill:#e0e0e0;fill-opacity:1;stroke:none;stroke-width:2;stroke-linecap:round;stroke-linejoin:round;stroke-miterlimit:4;stroke-dasharray:none;stroke-dashoffset:0;stroke-opacity:.99607843" id="path4172" d="M 9 5 L 7.5 7.5 L 6.7988281 8.6679688 L 6.6992188 8.5 L 5.8007812 7 L 4.9003906 8.5 L 4 10 L 5.8007812 10 L 6 10 L 7.5996094 10 L 9 10 L 12 10 L 10.5 7.5 L 9 5 z" transform="translate(0,1036.3622)"/></g></svg>