<svg xmlns="http://www.w3.org/2000/svg" xmlns:svg="http://www.w3.org/2000/svg" id="svg2" width="16" height="16" version="1.1" viewBox="0 0 16 16"><metadata id="metadata7"/><g id="layer1" transform="translate(0,-1036.3622)"><path style="opacity:1;fill:#fc9c9c;fill-opacity:1;stroke:none;stroke-width:2;stroke-linecap:butt;stroke-linejoin:round;stroke-miterlimit:4;stroke-dasharray:none;stroke-dashoffset:0;stroke-opacity:1" id="path4274" d="m 13.928203,1038.3622 -1.738281,1.0039 a 6,6 0 0 1 0.810547,2.9961 6,6 0 0 1 -0.808594,2.998 l 1.736328,1.002 a 8,8 0 0 0 0,-8 z"/><rect style="opacity:1;fill:#fc9c9c;fill-opacity:1;stroke:none;stroke-width:2;stroke-linecap:butt;stroke-linejoin:round;stroke-miterlimit:4;stroke-dasharray:none;stroke-dashoffset:0;stroke-opacity:1" id="rect4147" width="1" height="2" x="3" y="1049.362"/><path style="opacity:1;fill:#fc9c9c;fill-opacity:1;stroke:none;stroke-width:2;stroke-linecap:butt;stroke-linejoin:round;stroke-miterlimit:4;stroke-dasharray:none;stroke-dashoffset:0;stroke-opacity:1" id="path4149" d="M 6 1 A 5 5 0 0 0 1 6 L 3 6 A 3 3 0 0 1 6 3 A 3 3 0 0 1 9 6 L 11 6 A 5 5 0 0 0 6 1 z" transform="translate(0,1036.3622)"/><path style="fill:none;fill-rule:evenodd;stroke:#fc9c9c;stroke-width:2;stroke-linecap:butt;stroke-linejoin:miter;stroke-miterlimit:4;stroke-dasharray:none;stroke-opacity:1" id="path4155" d="m 10,1042.3622 c 0,4 -3,4 -3,5 0,3 -2,3 -3,3"/></g></svg>