<svg xmlns="http://www.w3.org/2000/svg" xmlns:svg="http://www.w3.org/2000/svg" id="svg2" width="16" height="16" version="1.1" viewBox="0 0 16 16"><metadata id="metadata7"/><g id="layer1" transform="translate(0,-1036.3622)"><rect style="opacity:1;fill:#fff;fill-opacity:.99607843;stroke:none;stroke-width:2;stroke-linecap:round;stroke-linejoin:round;stroke-miterlimit:4;stroke-dasharray:none;stroke-dashoffset:0;stroke-opacity:1" id="rect4194" width="7" height="14" x="27" y="1038.362"/><path style="opacity:1;fill:#e0e0e0;fill-opacity:.99607843;stroke:none;stroke-width:2;stroke-linecap:round;stroke-linejoin:round;stroke-miterlimit:4;stroke-dasharray:none;stroke-dashoffset:0;stroke-opacity:1" id="rect4196" d="M 1 1 L 1 15 L 13 15 C 14.104569 15 15 14.1046 15 13 L 15 3 C 15 1.8954 14.104569 1 13 1 L 1 1 z M 8 2 A 2 2 0 0 1 10 4 A 2 2 0 0 1 8 6 A 2 2 0 0 1 6 4 A 2 2 0 0 1 8 2 z M 4 6 A 2 2 0 0 1 6 8 A 2 2 0 0 1 4 10 A 2 2 0 0 1 2 8 A 2 2 0 0 1 4 6 z M 12 6 A 2 2 0 0 1 14 8 A 2 2 0 0 1 12 10 A 2 2 0 0 1 10 8 A 2 2 0 0 1 12 6 z M 8 10 A 2 2 0 0 1 10 12 A 2 2 0 0 1 8 14 A 2 2 0 0 1 6 12 A 2 2 0 0 1 8 10 z" transform="translate(0,1036.3622)"/></g></svg>