<svg xmlns="http://www.w3.org/2000/svg" xmlns:svg="http://www.w3.org/2000/svg" id="svg2" width="16" height="16" version="1.1" viewBox="0 0 16 16"><defs id="defs4"><clipPath id="clipPath4253" clipPathUnits="userSpaceOnUse"><path style="fill:#fff;fill-opacity:1;stroke:none;stroke-width:4;stroke-linecap:round;stroke-linejoin:round;stroke-miterlimit:4;stroke-dasharray:none;stroke-opacity:1" id="path4255" d="m 16.458984,1024.37 a 12.000027,12.000027 0 0 0 -3.564453,0.4004 12.000027,12.000027 0 0 0 -8.4863279,14.6973 12.000027,12.000027 0 0 0 14.6972659,8.4863 12.000027,12.000027 0 0 0 8.486328,-14.6973 12.000027,12.000027 0 0 0 -11.132813,-8.8867 z M 16.25,1029.8212 a 6.5451717,6.5451717 0 0 1 6.072266,4.8476 6.5451717,6.5451717 0 0 1 -4.628907,8.0157 6.5451717,6.5451717 0 0 1 -8.0156246,-4.6289 6.5451717,6.5451717 0 0 1 4.6289066,-8.0157 6.5451717,6.5451717 0 0 1 1.943359,-0.2187 z"/></clipPath><clipPath id="clipPath4218" clipPathUnits="userSpaceOnUse"><path style="opacity:1;fill:#fff;fill-opacity:1;stroke:none;stroke-width:2;stroke-linecap:round;stroke-linejoin:round;stroke-miterlimit:4;stroke-dasharray:none;stroke-dashoffset:0;stroke-opacity:.99607843" id="path4221" d="m 8,1037.3622 a 7.0000172,7.0000172 0 0 0 -7,7 7.0000172,7.0000172 0 0 0 7,7 7.0000172,7.0000172 0 0 0 7,-7 7.0000172,7.0000172 0 0 0 -7,-7 z m 0,3 a 4,4 0 0 1 4,4 4,4 0 0 1 -4,4 4,4 0 0 1 -4,-4 4,4 0 0 1 4,-4 z"/></clipPath></defs><metadata id="metadata7"/><g id="layer1" transform="translate(0,-1036.3622)"><circle style="opacity:1;fill:#fff;fill-opacity:1;stroke:none;stroke-width:2;stroke-linecap:square;stroke-linejoin:round;stroke-miterlimit:4;stroke-dasharray:none;stroke-dashoffset:0;stroke-opacity:1" id="path4151" cx="8" cy="1044.362" r="8"/><g id="g4204" clip-path="url(#clipPath4218)"><path id="path4153" d="m 6.1882667,1037.6007 a 7,7 0 0 1 3.6234668,0 L 8,1044.3622 Z" style="opacity:1;fill:red;fill-opacity:1;stroke:none;stroke-width:2;stroke-linecap:round;stroke-linejoin:round;stroke-miterlimit:4;stroke-dasharray:none;stroke-dashoffset:0;stroke-opacity:.99607843"/><path style="opacity:1;fill:#ff4d00;fill-opacity:1;stroke:none;stroke-width:2;stroke-linecap:round;stroke-linejoin:round;stroke-miterlimit:4;stroke-dasharray:none;stroke-dashoffset:0;stroke-opacity:.99607843" id="path4157" d="m 527.29758,893.68267 a 7,7 0 0 1 3.62347,0 l -1.81174,6.76148 z" transform="matrix(0.8660254,0.5,-0.5,0.8660254,0,0)"/><path id="path4159" d="m 906.63248,508.49139 a 7,7 0 0 1 3.62347,0 l -1.81174,6.76148 z" transform="matrix(0.5,0.8660254,-0.8660254,0.5,0,0)" style="opacity:1;fill:#f90;fill-opacity:1;stroke:none;stroke-width:2;stroke-linecap:round;stroke-linejoin:round;stroke-miterlimit:4;stroke-dasharray:none;stroke-dashoffset:0;stroke-opacity:.99607843"/><path style="opacity:1;fill:#ffca00;fill-opacity:1;stroke:none;stroke-width:2;stroke-linecap:round;stroke-linejoin:round;stroke-miterlimit:4;stroke-dasharray:none;stroke-dashoffset:0;stroke-opacity:.99607843" id="path4161" d="m 1042.5504,-14.761498 a 7,7 0 0 1 3.6235,0 l -1.8117,6.7614808 z" transform="matrix(0,1,-1,0,0,0)"/><path id="path4163" d="m 898.63248,-535.87086 a 7,7 0 0 1 3.62347,0 l -1.81174,6.76149 z" transform="matrix(-0.5,0.8660254,-0.8660254,-0.5,0,0)" style="opacity:1;fill:#ff0;fill-opacity:1;stroke:none;stroke-width:2;stroke-linecap:round;stroke-linejoin:round;stroke-miterlimit:4;stroke-dasharray:none;stroke-dashoffset:0;stroke-opacity:.99607843"/><path style="opacity:1;fill:#9fff00;fill-opacity:1;stroke:none;stroke-width:2;stroke-linecap:round;stroke-linejoin:round;stroke-miterlimit:4;stroke-dasharray:none;stroke-dashoffset:0;stroke-opacity:.99607843" id="path4165" d="m 513.4412,-915.20569 a 7,7 0 0 1 3.62346,0 l -1.81173,6.76148 z" transform="matrix(-0.8660254,0.5,-0.5,-0.8660254,0,0)"/><path id="path4167" d="m -9.8117504,-1051.1237 a 7,7 0 0 1 3.6234668,0 l -1.8117336,6.7615 z" transform="scale(-1,-1)" style="opacity:1;fill:#0f0;fill-opacity:1;stroke:none;stroke-width:2;stroke-linecap:round;stroke-linejoin:round;stroke-miterlimit:4;stroke-dasharray:none;stroke-dashoffset:0;stroke-opacity:.99607843"/><path style="opacity:1;fill:#0fa;fill-opacity:1;stroke:none;stroke-width:2;stroke-linecap:round;stroke-linejoin:round;stroke-miterlimit:4;stroke-dasharray:none;stroke-dashoffset:0;stroke-opacity:.99607843" id="path4169" d="m -530.92105,-907.20576 a 7,7 0 0 1 3.62347,0 l -1.81173,6.76149 z" transform="matrix(-0.8660254,-0.5,0.5,-0.8660254,0,0)"/><path id="path4171" d="m -910.25589,-522.01441 a 7,7 0 0 1 3.62347,0 l -1.81173,6.76148 z" transform="matrix(-0.5,-0.8660254,0.8660254,-0.5,0,0)" style="opacity:1;fill:#00f;fill-opacity:1;stroke:none;stroke-width:2;stroke-linecap:round;stroke-linejoin:round;stroke-miterlimit:4;stroke-dasharray:none;stroke-dashoffset:0;stroke-opacity:.99607843"/><path style="opacity:1;fill:#9000ff;fill-opacity:1;stroke:none;stroke-width:2;stroke-linecap:round;stroke-linejoin:round;stroke-miterlimit:4;stroke-dasharray:none;stroke-dashoffset:0;stroke-opacity:.99607843" id="path4173" d="m -1046.1739,1.2385373 a 7,7 0 0 1 3.6235,1e-7 l -1.8118,6.7614807 z" transform="matrix(0,-1,1,0,0,0)"/><path id="path4175" d="m -902.25595,522.34777 a 7,7 0 0 1 3.62347,0 l -1.81173,6.76148 z" transform="matrix(0.5,-0.8660254,0.8660254,0.5,0,0)" style="opacity:1;fill:#f0e;fill-opacity:1;stroke:none;stroke-width:2;stroke-linecap:round;stroke-linejoin:round;stroke-miterlimit:4;stroke-dasharray:none;stroke-dashoffset:0;stroke-opacity:.99607843"/><path style="opacity:1;fill:#ff009a;fill-opacity:1;stroke:none;stroke-width:2;stroke-linecap:round;stroke-linejoin:round;stroke-miterlimit:4;stroke-dasharray:none;stroke-dashoffset:0;stroke-opacity:.99607843" id="path4177" d="m -517.0646,901.68267 a 7,7 0 0 1 3.62346,0 l -1.81173,6.76148 z" transform="matrix(0.8660254,-0.5,0.5,0.8660254,0,0)"/></g></g></svg>