<svg xmlns="http://www.w3.org/2000/svg" xmlns:svg="http://www.w3.org/2000/svg" id="svg2" width="16" height="16" version="1.1" viewBox="0 0 16 16"><metadata id="metadata7"/><g id="layer1" transform="translate(0,-1036.3622)"><path style="opacity:1;fill:#e0e0e0;fill-opacity:1;stroke:none;stroke-width:2;stroke-linecap:butt;stroke-linejoin:bevel;stroke-miterlimit:4;stroke-dasharray:none;stroke-dashoffset:0;stroke-opacity:.99607843" id="rect4155" d="M 5,2 C 4.4477153,2 4,2.4477153 4,3 l 0,1 0,7 -2,0 c -0.5522847,0 -1,0.447715 -1,1 l 0,2 c 0,0.552285 0.4477153,1 1,1 l 2,0 1,0 c 0.5522847,0 1,-0.447715 1,-1 l 0,-3 0,-7 6,0 0,5 -2,0 C 9.4477153,9 9,9.4477153 9,10 l 0,2 c 0,0.552285 0.4477153,1 1,1 l 3,0 c 0.552285,0 1,-0.447715 1,-1 L 14,9 14,3 C 14,2.4477153 13.552285,2 13,2 L 6,2 Z" transform="translate(0,1036.3622)"/></g></svg>