<svg xmlns="http://www.w3.org/2000/svg" xmlns:svg="http://www.w3.org/2000/svg" id="svg2" width="16" height="16" version="1.1" viewBox="0 0 16 16"><metadata id="metadata7"/><g id="layer1" transform="translate(0,-1036.3622)"><path style="opacity:1;fill:#a5efac;fill-opacity:1;stroke:none;stroke-width:2;stroke-linecap:round;stroke-linejoin:miter;stroke-miterlimit:4;stroke-dasharray:none;stroke-dashoffset:0;stroke-opacity:1" id="rect4143" d="M 3 2 C 1.8954305 2 1 2.8954305 1 4 L 1 13 C 1 14.104569 1.8954305 15 3 15 L 12 15 C 13.104569 15 14 14.104569 14 13 L 14 8.0722656 L 12 10.072266 L 12 13 L 3 13 L 3 4 L 9.5859375 4 L 11.585938 2 L 3 2 z" transform="translate(0,1036.3622)"/><path style="opacity:1;fill:#a5efac;fill-opacity:1;stroke:none;stroke-width:2;stroke-linecap:round;stroke-linejoin:miter;stroke-miterlimit:4;stroke-dasharray:none;stroke-dashoffset:0;stroke-opacity:1" id="rect4163" d="M 4.5857864,1045.3622 6,1046.7764 l 1.4142136,1.4142 1.4142135,-1.4142 4.9497479,-4.9497 -1.414214,-1.4142 -4.9497474,4.9497 L 6,1043.948 l -1.4142136,1.4142 z"/></g></svg>