<svg xmlns="http://www.w3.org/2000/svg" xmlns:svg="http://www.w3.org/2000/svg" id="svg2" width="16" height="16" version="1.1" viewBox="0 0 16 16"><metadata id="metadata7"/><g id="layer1" transform="translate(0,-1036.3622)"><path style="opacity:1;fill:#a5efac;fill-opacity:1;stroke:none;stroke-width:2;stroke-linecap:round;stroke-linejoin:miter;stroke-miterlimit:4;stroke-dasharray:none;stroke-dashoffset:0;stroke-opacity:1" id="path4142" d="M 8 1 A 3 3.0000043 0 0 0 5 4 A 3 3.0000043 0 0 0 8 7 A 3 3.0000043 0 0 0 11 4 A 3 3.0000043 0 0 0 8 1 z M 8 3 A 1.000016 1.0000174 0 0 1 9 4 A 1.000016 1.0000174 0 0 1 8 5 A 1.000016 1.0000174 0 0 1 7 4 A 1.000016 1.0000174 0 0 1 8 3 z" transform="translate(0,1036.3622)"/><rect id="rect4148" width="2" height="7" x="7" y="1042.362" style="fill:#a5efac;fill-opacity:1;stroke:none;stroke-width:4;stroke-linecap:round;stroke-linejoin:miter;stroke-miterlimit:4;stroke-dasharray:none;stroke-opacity:1"/><path style="opacity:1;fill:#a5efac;fill-opacity:1;stroke:none;stroke-width:2;stroke-linecap:round;stroke-linejoin:miter;stroke-miterlimit:4;stroke-dasharray:none;stroke-dashoffset:0;stroke-opacity:1" id="path4150" d="M 12.824219 9.2929688 A 5.0000172 5.0000172 0 0 1 8 13 A 5.0000172 5.0000172 0 0 1 3.171875 9.2949219 L 1.2382812 9.8125 A 7 7 0 0 0 8 15 A 7 7 0 0 0 14.761719 9.8125 L 12.824219 9.2929688 z" transform="translate(0,1036.3622)"/><rect style="opacity:1;fill:#a5efac;fill-opacity:1;stroke:none;stroke-width:2;stroke-linecap:round;stroke-linejoin:miter;stroke-miterlimit:4;stroke-dasharray:none;stroke-dashoffset:0;stroke-opacity:1" id="rect4155" width="6" height="2" x="5" y="1043.362"/></g></svg>