<svg xmlns="http://www.w3.org/2000/svg" xmlns:svg="http://www.w3.org/2000/svg" id="svg2" width="16" height="16" version="1.1" viewBox="0 0 16 16"><metadata id="metadata7"/><g id="layer1" transform="translate(0,-1036.3622)"><path style="opacity:1;fill:#e0e0e0;fill-opacity:1;stroke:none;stroke-width:3;stroke-linecap:round;stroke-linejoin:miter;stroke-miterlimit:4;stroke-dasharray:none;stroke-dashoffset:0;stroke-opacity:1" id="rect4155" d="M 1 5 L 1 9 A 3 2.9999914 0 0 0 2.5 11.597656 A 3 2.9999914 0 0 0 5.5 11.597656 A 3 2.9999914 0 0 0 7 9 L 7 5 L 5 5 L 5 9 A 1 1 0 0 1 4 10 A 1 1 0 0 1 3 9 L 3 5 L 1 5 z M 9 5 L 11 12 L 12 12 L 13 12 L 14 12 L 16 5 L 14 5 L 12.5 10.25 L 11 5 L 9 5 z" transform="translate(0,1036.3622)"/></g></svg>