<svg xmlns="http://www.w3.org/2000/svg" xmlns:svg="http://www.w3.org/2000/svg" id="svg2" width="16" height="16" version="1.1" viewBox="0 0 16 16"><metadata id="metadata7"/><g id="layer1" transform="translate(0,-1036.3622)"><path style="opacity:1;fill:#e0e0e0;fill-opacity:1;stroke:none;stroke-width:1;stroke-linecap:round;stroke-linejoin:round;stroke-miterlimit:4;stroke-dasharray:none;stroke-dashoffset:0;stroke-opacity:1" id="rect4163" d="m 16,1047.6532 -8,-3.291 3.290998,8 0.947104,-2.8201 1.8836,1.8835 0.941801,-0.9418 -1.8836,-1.8835 z"/><path style="opacity:1;fill:#e0e0e0;fill-opacity:1;stroke:none;stroke-width:1;stroke-linecap:round;stroke-linejoin:round;stroke-miterlimit:4;stroke-dasharray:none;stroke-dashoffset:0;stroke-opacity:1" id="rect4158" d="M 7 1 L 7 5 L 9 5 L 9 1 L 7 1 z M 1 7 L 1 9 L 5 9 L 5 7 L 1 7 z M 11 7 L 11 7.6132812 L 14.371094 9 L 15 9 L 15 7 L 11 7 z M 7 11 L 7 15 L 9 15 L 9 14.375 L 7.6113281 11 L 7 11 z" transform="translate(0,1036.3622)"/></g></svg>