<svg xmlns="http://www.w3.org/2000/svg" xmlns:svg="http://www.w3.org/2000/svg" id="svg2" width="16" height="16" version="1.1" viewBox="0 0 16 16"><metadata id="metadata7"/><g id="layer1" transform="translate(0,-1036.3622)"><rect style="opacity:1;fill:#fff;fill-opacity:.99607843;stroke:none;stroke-width:2;stroke-linecap:round;stroke-linejoin:round;stroke-miterlimit:4;stroke-dasharray:none;stroke-dashoffset:0;stroke-opacity:1" id="rect4194" width="7" height="14" x="27" y="1038.362"/><path style="opacity:1;fill:#e0e0e0;fill-opacity:.99607843;stroke:none;stroke-width:2;stroke-linecap:round;stroke-linejoin:round;stroke-miterlimit:4;stroke-dasharray:none;stroke-dashoffset:0;stroke-opacity:1" id="rect4196" d="M 3 1 A 2 2 0 0 0 1 3 L 1 13 A 2 2 0 0 0 3 15 L 15 15 L 15 1 L 3 1 z M 7 3 L 9 3 A 1 1 0 0 1 10 4 L 10 6 L 12 6 A 1 1 0 0 1 13 7 L 13 9 A 1 1 0 0 1 12 10 L 10 10 L 10 12 A 1 1 0 0 1 9 13 L 7 13 A 1 1 0 0 1 6 12 L 6 10 L 4 10 A 1 1 0 0 1 3 9 L 3 7 A 1 1 0 0 1 4 6 L 6 6 L 6 4 A 1 1 0 0 1 7 3 z" transform="translate(0,1036.3622)"/><circle style="opacity:1;fill:#e0e0e0;fill-opacity:1;stroke:none;stroke-width:2;stroke-linecap:round;stroke-linejoin:round;stroke-miterlimit:4;stroke-dasharray:none;stroke-dashoffset:0;stroke-opacity:1" id="path4251" cx="8" cy="1044.362" r="1"/></g></svg>