<svg xmlns="http://www.w3.org/2000/svg" xmlns:svg="http://www.w3.org/2000/svg" id="svg2" width="16" height="16" version="1.1" viewBox="0 0 16 16"><metadata id="metadata7"/><g id="layer1" transform="translate(0,-1036.3622)"><path style="opacity:1;fill:#e0e0e0;fill-opacity:1;stroke:none;stroke-width:3;stroke-linecap:round;stroke-linejoin:round;stroke-miterlimit:4;stroke-dasharray:none;stroke-dashoffset:0;stroke-opacity:1" id="rect4135" d="M 3,1 C 1.8954305,1 1,1.8954305 1,3 l 0,10 c 0,1.104569 0.8954305,2 2,2 l 10,0 c 1.104569,0 2,-0.895431 2,-2 L 15,5 11,1 Z m 0,0 8,0 0,6 -8,0 z m 5,8 c 1.1045695,0 2,0.8954305 2,2 0,1.104569 -0.8954305,2 -2,2 C 6.8954305,13 6,12.104569 6,11 6,9.8954305 6.8954305,9 8,9 Z" transform="translate(0,1036.3622)"/><rect style="opacity:1;fill:#e0e0e0;fill-opacity:1;stroke:none;stroke-width:2;stroke-linecap:butt;stroke-linejoin:round;stroke-miterlimit:4;stroke-dasharray:none;stroke-dashoffset:0;stroke-opacity:1" id="rect4143" width="3" height="5" x="4" y="1037.362"/><path style="fill:#e0e0e0;fill-opacity:1;fill-rule:evenodd;stroke:none;stroke-width:1px;stroke-linecap:butt;stroke-linejoin:miter;stroke-opacity:1" id="path4145" d="m 11,1037.3622 1,0 3,3 0,2 -4,0 z"/></g></svg>