<svg xmlns="http://www.w3.org/2000/svg" xmlns:svg="http://www.w3.org/2000/svg" id="svg2" width="16" height="16" version="1.1" viewBox="0 0 16 16"><metadata id="metadata7"/><g id="layer1" transform="translate(0,-1036.3622)"><path style="opacity:1;fill:#e0e0e0;fill-opacity:.99607843;stroke:none;stroke-width:3;stroke-linecap:round;stroke-linejoin:round;stroke-miterlimit:4;stroke-dasharray:none;stroke-dashoffset:0;stroke-opacity:1" id="rect4136" d="M 2 5 L 2 13 A 2 2 0 0 0 4 15 L 12 15 A 2 2 0 0 0 14 13 L 14 5 L 2 5 z M 3 7 L 5 7 L 5 13 L 3 13 L 3 7 z M 7 7 L 9 7 L 9 13 L 7 13 L 7 7 z M 11 7 L 13 7 L 13 13 L 11 13 L 11 7 z" transform="translate(0,1036.3622)"/><rect id="rect4138" width="14" height="2" x="1" y="1038.362" style="opacity:1;fill:#e0e0e0;fill-opacity:.99607843;stroke:none;stroke-width:3;stroke-linecap:round;stroke-linejoin:round;stroke-miterlimit:4;stroke-dasharray:none;stroke-dashoffset:0;stroke-opacity:1"/><rect style="opacity:1;fill:#e0e0e0;fill-opacity:.99607843;stroke:none;stroke-width:3;stroke-linecap:round;stroke-linejoin:round;stroke-miterlimit:4;stroke-dasharray:none;stroke-dashoffset:0;stroke-opacity:1" id="rect4140" width="6" height="2" x="5" y="1037.362"/></g></svg>