<svg xmlns="http://www.w3.org/2000/svg" xmlns:svg="http://www.w3.org/2000/svg" id="svg2" width="128" height="128" version="1.1" viewBox="0 0 128 128"><metadata id="metadata7"/><g id="layer1" transform="translate(0,-924.3622)"><g id="g4175" transform="matrix(2,0,0,2,-16,-1040.3622)"><path id="path4274" d="m 63.712867,990.36221 -6.953133,4.0152 a 24.000031,23.999015 0 0 1 3.242193,11.98399 24.000031,23.999015 0 0 1 -3.234381,11.9917 l 6.945321,4.0076 a 32.000041,31.998687 0 0 0 0,-31.99849 z" style="opacity:1;fill:#f7f5cf;fill-opacity:1;stroke:none;stroke-width:2;stroke-linecap:butt;stroke-linejoin:round;stroke-miterlimit:4;stroke-dasharray:none;stroke-dashoffset:0;stroke-opacity:1"/><rect id="rect4147" width="4" height="8" x="20" y="1034.36" style="opacity:1;fill:#f7f5cf;fill-opacity:1;stroke:none;stroke-width:2;stroke-linecap:butt;stroke-linejoin:round;stroke-miterlimit:4;stroke-dasharray:none;stroke-dashoffset:0;stroke-opacity:1"/><path id="path4149" d="m 32.000015,986.3622 a 20.000026,19.999179 0 0 0 -20.000026,19.9992 l 8.00001,0 a 12.000015,11.999507 0 0 1 12.000016,-11.99959 12.000015,11.999507 0 0 1 12.000015,11.99959 l 8.00001,0 A 20.000026,19.999179 0 0 0 32.000015,986.3622 Z" style="opacity:1;fill:#f7f5cf;fill-opacity:1;stroke:none;stroke-width:2;stroke-linecap:butt;stroke-linejoin:round;stroke-miterlimit:4;stroke-dasharray:none;stroke-dashoffset:0;stroke-opacity:1"/><path id="path4155" d="m 48.000035,1006.3614 c 0,15.9993 -12.000015,15.9993 -12.000015,19.9993 0,11.9992 -8.00001,11.9992 -12.000016,11.9992" style="fill:none;fill-rule:evenodd;stroke:#f7f5cf;stroke-width:7.99984121;stroke-linecap:butt;stroke-linejoin:miter;stroke-miterlimit:4;stroke-dasharray:none;stroke-opacity:1"/></g></g></svg>