<svg xmlns="http://www.w3.org/2000/svg" xmlns:svg="http://www.w3.org/2000/svg" id="svg2" width="16" height="16" version="1.1" viewBox="0 0 16 16"><metadata id="metadata7"/><g id="layer1" transform="translate(0,-1036.3622)"><path style="opacity:1;fill:#e1cb50;fill-opacity:.98431373;stroke:none;stroke-width:2;stroke-linecap:round;stroke-linejoin:miter;stroke-miterlimit:4;stroke-dasharray:none;stroke-dashoffset:0;stroke-opacity:1" id="rect4136" d="m 1,1037.3622 0,14 1.1666666,0 0,-2 1.8333334,0 0,2 8,0 0,-2 2,0 0,2 1,0 0,-14 -1,0 0,2 -2,0 0,-2 -8,0 0,2 -1.8333334,0 0,-2 z m 1.1666666,4 1.8333334,0 0,2 -1.8333334,0 z m 9.8333334,0 2,0 0,2 -2,0 z m -9.8333334,4 1.8333334,0 0,2 -1.8333334,0 z m 9.8333334,0 2,0 0,2 -2,0 z"/></g></svg>