<svg xmlns="http://www.w3.org/2000/svg" xmlns:svg="http://www.w3.org/2000/svg" id="svg2" width="14" height="14" version="1.1" viewBox="0 0 14 14"><metadata id="metadata7"/><g id="layer1" transform="translate(0,-1038.3622)"><rect style="opacity:1;fill:#cf68ea;fill-opacity:1;stroke:none;stroke-width:2;stroke-linecap:square;stroke-linejoin:round;stroke-miterlimit:4;stroke-dasharray:none;stroke-dashoffset:0;stroke-opacity:1" id="rect4154" width="2" height="11" x="3" y="1040.362"/><rect id="rect4156" width="4" height="2" x="3" y="1039.362" style="opacity:1;fill:#cf68ea;fill-opacity:1;stroke:none;stroke-width:2;stroke-linecap:square;stroke-linejoin:round;stroke-miterlimit:4;stroke-dasharray:none;stroke-dashoffset:0;stroke-opacity:1"/><path style="opacity:1;fill:#cf68ea;fill-opacity:1;stroke:none;stroke-width:2;stroke-linecap:square;stroke-linejoin:round;stroke-miterlimit:4;stroke-dasharray:none;stroke-dashoffset:0;stroke-opacity:1" id="path4156" d="M 7 1 L 7 3 A 2 2.0000055 0 0 1 9 5 A 2 2.0000055 0 0 1 7 7 L 7 9 A 4 4 0 0 0 11 5 A 4 4 0 0 0 7 1 z" transform="translate(0,1038.3622)"/><rect style="opacity:1;fill:#cf68ea;fill-opacity:1;stroke:none;stroke-width:2;stroke-linecap:square;stroke-linejoin:round;stroke-miterlimit:4;stroke-dasharray:none;stroke-dashoffset:0;stroke-opacity:1" id="rect4160" width="4" height="2" x="3" y="1045.362"/><rect id="rect4162" width="2" height="2" x="1049.362" y="-12" transform="matrix(0,1,-1,0,0,0)" style="opacity:1;fill:#cf68ea;fill-opacity:1;stroke:none;stroke-width:2;stroke-linecap:square;stroke-linejoin:round;stroke-miterlimit:4;stroke-dasharray:none;stroke-dashoffset:0;stroke-opacity:1"/><path style="opacity:1;fill:#cf68ea;fill-opacity:1;stroke:none;stroke-width:2;stroke-linecap:square;stroke-linejoin:round;stroke-miterlimit:4;stroke-dasharray:none;stroke-dashoffset:0;stroke-opacity:1" id="path4164" d="M 8 7 L 8 9 A 2 2.0000055 0 0 1 10 11 L 12 11 A 4 4 0 0 0 8 7 z" transform="translate(0,1038.3622)"/><rect style="opacity:1;fill:#cf68ea;fill-opacity:1;stroke:none;stroke-width:2;stroke-linecap:square;stroke-linejoin:round;stroke-miterlimit:4;stroke-dasharray:none;stroke-dashoffset:0;stroke-opacity:1" id="rect4168" width="2" height="2" x="1045.362" y="-8" transform="matrix(0,1,-1,0,0,0)"/></g></svg>