<svg xmlns="http://www.w3.org/2000/svg" xmlns:svg="http://www.w3.org/2000/svg" id="svg2" width="16" height="16" version="1.1" viewBox="0 0 16 16"><metadata id="metadata7"/><g id="layer1" transform="translate(0,-1036.3622)"><path style="opacity:1;fill:#e0e0e0;fill-opacity:.99607843;stroke:none;stroke-width:3;stroke-linecap:round;stroke-linejoin:round;stroke-miterlimit:4;stroke-dasharray:none;stroke-dashoffset:0;stroke-opacity:1" id="path4137" d="M 8 1 L 8 3 L 6 3 A 5 5 0 0 0 1 8 A 5 5 0 0 0 2.0039062 10.996094 L 3.4394531 9.5605469 A 3.0000174 3.0000174 0 0 1 3 8 A 3.0000174 3.0000174 0 0 1 6 5 L 8 5 L 8 7 L 10 5.5 L 12 4 L 10 2.5 L 8 1 z M 13.996094 5.0039062 L 12.560547 6.4394531 A 3.0000174 3.0000174 0 0 1 13 8 A 3.0000174 3.0000174 0 0 1 10 11 L 8 11 L 8 9 L 6 10.5 L 4 12 L 6 13.5 L 8 15 L 8 13 L 10 13 A 5 5 0 0 0 15 8 A 5 5 0 0 0 13.996094 5.0039062 z" transform="translate(0,1036.3622)"/></g></svg>