<svg xmlns="http://www.w3.org/2000/svg" xmlns:svg="http://www.w3.org/2000/svg" id="svg2" width="16" height="16" version="1.1" viewBox="0 0 16 16"><metadata id="metadata7"/><g id="layer1" transform="translate(0,-1036.3622)"><path style="opacity:1;fill:#e0e0e0;fill-opacity:.99607843;stroke:none;stroke-width:2;stroke-linecap:round;stroke-linejoin:miter;stroke-miterlimit:4;stroke-dasharray:none;stroke-dashoffset:0;stroke-opacity:1" id="path4139" d="M 10.478516 1 A 2.4664114 2.4663006 0 0 0 8.6972656 1.7207031 A 2.4664114 2.4663006 0 0 0 8.3828125 4.8242188 L 7.3105469 5.8964844 L 10.101562 8.6875 L 11.177734 7.6132812 A 2.4664198 2.4663006 0 0 0 14.277344 7.3027344 A 2.4664198 2.4663006 0 0 0 14.277344 3.8144531 A 2.4664198 2.4663006 0 0 0 12.880859 3.1171875 A 2.4664114 2.4663006 0 0 0 12.185547 1.7207031 A 2.4664114 2.4663006 0 0 0 10.478516 1 z M 5.8964844 7.3105469 L 4.8242188 8.3847656 A 2.4664114 2.4663006 0 0 0 1.7226562 8.6972656 A 2.4664114 2.4663006 0 0 0 1.7226562 12.185547 A 2.4664114 2.4663006 0 0 0 3.1191406 12.880859 A 2.4664198 2.4663006 0 0 0 3.8144531 14.277344 A 2.4664198 2.4663006 0 0 0 7.3027344 14.277344 A 2.4664198 2.4663006 0 0 0 7.6171875 11.173828 L 8.6875 10.101562 L 5.8964844 7.3105469 z" transform="translate(0,1036.3622)"/></g></svg>