<svg xmlns="http://www.w3.org/2000/svg" xmlns:svg="http://www.w3.org/2000/svg" id="svg2" width="16" height="16" version="1.1" viewBox="0 0 16 16"><metadata id="metadata7"/><g id="layer1" transform="translate(0,-1036.3622)"><rect style="opacity:1;fill:#a5efac;fill-opacity:1;stroke:none;stroke-width:2;stroke-linecap:butt;stroke-linejoin:round;stroke-miterlimit:4;stroke-dasharray:none;stroke-dashoffset:0;stroke-opacity:1" id="rect4172" width="1" height="10" x="0" y="1039.362"/><rect id="rect4174" width="1" height="10" x="15" y="1039.362" style="opacity:1;fill:#a5efac;fill-opacity:1;stroke:none;stroke-width:2;stroke-linecap:butt;stroke-linejoin:round;stroke-miterlimit:4;stroke-dasharray:none;stroke-dashoffset:0;stroke-opacity:1"/><path style="opacity:1;fill:#a5efac;fill-opacity:1;stroke:none;stroke-width:2;stroke-linecap:butt;stroke-linejoin:round;stroke-miterlimit:4;stroke-dasharray:none;stroke-dashoffset:0;stroke-opacity:1" id="path4176" d="m 2,1049.3622 a 1,1 0 0 1 -0.6173166,0.9239 1,1 0 0 1 -1.08979019,-0.2168 1,1 0 0 1 -0.21677274,-1.0898 A 1,1 0 0 1 1,1048.3622 l 0,1 z"/><rect id="rect4178" width="1" height="14" x="1049.362" y="-15" transform="matrix(0,1,-1,0,0,0)" style="opacity:1;fill:#a5efac;fill-opacity:1;stroke:none;stroke-width:2;stroke-linecap:butt;stroke-linejoin:round;stroke-miterlimit:4;stroke-dasharray:none;stroke-dashoffset:0;stroke-opacity:1"/><path id="path4180" d="m -14,1049.3622 a 1,1 0 0 1 -0.617317,0.9239 1,1 0 0 1 -1.08979,-0.2168 1,1 0 0 1 -0.216773,-1.0898 1,1 0 0 1 0.92388,-0.6173 l 0,1 z" transform="scale(-1,1)" style="opacity:1;fill:#a5efac;fill-opacity:1;stroke:none;stroke-width:2;stroke-linecap:butt;stroke-linejoin:round;stroke-miterlimit:4;stroke-dasharray:none;stroke-dashoffset:0;stroke-opacity:1"/><path id="path4182" d="m 2,-1039.3622 a 1,1 0 0 1 -0.6173166,0.9239 1,1 0 0 1 -1.08979019,-0.2168 1,1 0 0 1 -0.21677274,-1.0898 A 1,1 0 0 1 1,-1040.3622 l 0,1 z" transform="scale(1,-1)" style="opacity:1;fill:#a5efac;fill-opacity:1;stroke:none;stroke-width:2;stroke-linecap:butt;stroke-linejoin:round;stroke-miterlimit:4;stroke-dasharray:none;stroke-dashoffset:0;stroke-opacity:1"/><path style="opacity:1;fill:#a5efac;fill-opacity:1;stroke:none;stroke-width:2;stroke-linecap:butt;stroke-linejoin:round;stroke-miterlimit:4;stroke-dasharray:none;stroke-dashoffset:0;stroke-opacity:1" id="path4184" d="m -14,-1039.3622 a 1,1 0 0 1 -0.617317,0.9239 1,1 0 0 1 -1.08979,-0.2168 1,1 0 0 1 -0.216773,-1.0898 1,1 0 0 1 0.92388,-0.6173 l 0,1 z" transform="scale(-1,-1)"/><rect style="opacity:1;fill:#a5efac;fill-opacity:1;stroke:none;stroke-width:2;stroke-linecap:butt;stroke-linejoin:round;stroke-miterlimit:4;stroke-dasharray:none;stroke-dashoffset:0;stroke-opacity:1" id="rect4186" width="1" height="14" x="1038.362" y="-15" transform="matrix(0,1,-1,0,0,0)"/><rect style="opacity:1;fill:#a5efac;fill-opacity:1;stroke:none;stroke-width:2;stroke-linecap:butt;stroke-linejoin:round;stroke-miterlimit:4;stroke-dasharray:none;stroke-dashoffset:0;stroke-opacity:1" id="rect4188" width="4" height="6" x="3" y="1041.362"/><rect id="rect4190" width="4" height="6" x="9" y="1041.362" style="opacity:1;fill:#a5efac;fill-opacity:1;stroke:none;stroke-width:2;stroke-linecap:butt;stroke-linejoin:round;stroke-miterlimit:4;stroke-dasharray:none;stroke-dashoffset:0;stroke-opacity:1"/><rect id="rect4192" width="4" height="2" x="3" y="1045.362" style="opacity:1;fill:#98dc9f;fill-opacity:1;stroke:none;stroke-width:2;stroke-linecap:butt;stroke-linejoin:round;stroke-miterlimit:4;stroke-dasharray:none;stroke-dashoffset:0;stroke-opacity:1"/><rect style="opacity:1;fill:#98dc9f;fill-opacity:1;stroke:none;stroke-width:2;stroke-linecap:butt;stroke-linejoin:round;stroke-miterlimit:4;stroke-dasharray:none;stroke-dashoffset:0;stroke-opacity:1" id="rect4194" width="4" height="2" x="9" y="1045.362"/></g></svg>