<svg xmlns="http://www.w3.org/2000/svg" xmlns:svg="http://www.w3.org/2000/svg" id="svg2" width="16" height="16" version="1.1" viewBox="0 0 16 16"><metadata id="metadata7"/><g id="layer1" transform="translate(0,-1036.3622)"><path style="opacity:1;fill:#a5efac;fill-opacity:1;stroke:none;stroke-width:2;stroke-linecap:round;stroke-linejoin:miter;stroke-miterlimit:4;stroke-dasharray:none;stroke-dashoffset:0;stroke-opacity:1" id="rect4140" d="M 3 1 C 1.8954305 1 1 1.8954305 1 3 L 1 13 C 1 14.104569 1.8954305 15 3 15 L 13 15 C 14.104569 15 15 14.104569 15 13 L 15 3 C 15 1.8954305 14.104569 1 13 1 L 3 1 z M 7 3 L 9 3 L 9 9 L 7 9 L 7 3 z M 7 11 L 9 11 L 9 13 L 7 13 L 7 11 z" transform="translate(0,1036.3622)"/></g></svg>