<svg xmlns="http://www.w3.org/2000/svg" xmlns:svg="http://www.w3.org/2000/svg" id="svg2" width="128" height="128" version="1.1" viewBox="0 0 128 128"><metadata id="metadata7"/><g id="layer1" transform="translate(0,-924.3622)"><circle style="opacity:1;fill:#f7f5cf;fill-opacity:1;stroke:none;stroke-width:2;stroke-linecap:round;stroke-linejoin:round;stroke-miterlimit:4;stroke-dasharray:none;stroke-dashoffset:0;stroke-opacity:1" id="path4156" cx="64" cy="988.362" r="24"/><path style="opacity:1;fill:#f7f5cf;fill-opacity:1;stroke:none;stroke-width:2;stroke-linecap:round;stroke-linejoin:round;stroke-miterlimit:4;stroke-dasharray:none;stroke-dashoffset:0;stroke-opacity:1" id="rect4169" d="m 64,4 a 8.0000172,8.0000172 0 0 0 -8,8 l 0,12 a 7.9999828,7.9999828 0 0 0 8,8 7.9999828,7.9999828 0 0 0 8,-8 L 72,12 A 8.0000172,8.0000172 0 0 0 64,4 Z" transform="translate(0,924.3622)"/><path id="path4148" d="m 124,988.3622 a 8.0000172,8.0000172 0 0 0 -8,-8 l -12,0 a 7.9999828,7.9999828 0 0 0 -8,8 7.9999828,7.9999828 0 0 0 8,8 l 12,0 a 8.0000172,8.0000172 0 0 0 8,-8 z" style="opacity:1;fill:#f7f5cf;fill-opacity:1;stroke:none;stroke-width:2;stroke-linecap:round;stroke-linejoin:round;stroke-miterlimit:4;stroke-dasharray:none;stroke-dashoffset:0;stroke-opacity:1"/><path style="opacity:1;fill:#f7f5cf;fill-opacity:1;stroke:none;stroke-width:2;stroke-linecap:round;stroke-linejoin:round;stroke-miterlimit:4;stroke-dasharray:none;stroke-dashoffset:0;stroke-opacity:1" id="path4150" d="m 64,1048.3622 a 8.0000172,8.0000172 0 0 0 8,-8 l 0,-12 a 7.9999828,7.9999828 0 0 0 -8,-8 7.9999828,7.9999828 0 0 0 -8,8 l 0,12 a 8.0000172,8.0000172 0 0 0 8,8 z"/><path id="path4152" d="m 4,988.3622 a 8.0000172,8.0000172 0 0 0 8,8 l 12,0 a 7.9999828,7.9999828 0 0 0 8,-8 7.9999828,7.9999828 0 0 0 -8,-8 l -12,0 a 8.0000172,8.0000172 0 0 0 -8,8 z" style="opacity:1;fill:#f7f5cf;fill-opacity:1;stroke:none;stroke-width:2;stroke-linecap:round;stroke-linejoin:round;stroke-miterlimit:4;stroke-dasharray:none;stroke-dashoffset:0;stroke-opacity:1"/><path id="path4154" d="m 106.42641,945.93579 a 8.0000172,8.0000172 0 0 0 -11.313712,0 l -8.485281,8.48528 a 7.9999828,7.9999828 0 0 0 0,11.31371 7.9999828,7.9999828 0 0 0 11.313708,0 l 8.485285,-8.48528 a 8.0000172,8.0000172 0 0 0 0,-11.31371 z" style="opacity:1;fill:#f7f5cf;fill-opacity:1;stroke:none;stroke-width:2;stroke-linecap:round;stroke-linejoin:round;stroke-miterlimit:4;stroke-dasharray:none;stroke-dashoffset:0;stroke-opacity:1"/><path style="opacity:1;fill:#f7f5cf;fill-opacity:1;stroke:none;stroke-width:2;stroke-linecap:round;stroke-linejoin:round;stroke-miterlimit:4;stroke-dasharray:none;stroke-dashoffset:0;stroke-opacity:1" id="path4157" d="m 106.42641,1030.7886 a 8.0000172,8.0000172 0 0 0 0,-11.3137 l -8.485285,-8.4853 a 7.9999828,7.9999828 0 0 0 -11.313708,0 7.9999828,7.9999828 0 0 0 0,11.3137 l 8.485281,8.4853 a 8.0000172,8.0000172 0 0 0 11.313712,0 z"/><path id="path4159" d="m 21.573593,1030.7886 a 8.0000172,8.0000172 0 0 0 11.313709,0 l 8.485281,-8.4853 a 7.9999828,7.9999828 0 0 0 0,-11.3137 7.9999828,7.9999828 0 0 0 -11.313708,0 l -8.485282,8.4853 a 8.0000172,8.0000172 0 0 0 0,11.3137 z" style="opacity:1;fill:#f7f5cf;fill-opacity:1;stroke:none;stroke-width:2;stroke-linecap:round;stroke-linejoin:round;stroke-miterlimit:4;stroke-dasharray:none;stroke-dashoffset:0;stroke-opacity:1"/><path style="opacity:1;fill:#f7f5cf;fill-opacity:1;stroke:none;stroke-width:2;stroke-linecap:round;stroke-linejoin:round;stroke-miterlimit:4;stroke-dasharray:none;stroke-dashoffset:0;stroke-opacity:1" id="path4161" d="m 21.573593,945.93579 a 8.0000172,8.0000172 0 0 0 0,11.31371 l 8.485282,8.48528 a 7.9999828,7.9999828 0 0 0 11.313708,0 7.9999828,7.9999828 0 0 0 0,-11.31371 l -8.485281,-8.48528 a 8.0000172,8.0000172 0 0 0 -11.313709,0 z"/></g></svg>