<svg xmlns="http://www.w3.org/2000/svg" xmlns:svg="http://www.w3.org/2000/svg" id="svg2" width="16" height="16" version="1.1" viewBox="0 0 16 16"><metadata id="metadata7"/><g id="layer1" transform="translate(0,-1036.3622)"><path style="fill:#e0e0e0;fill-opacity:1;stroke:none;stroke-width:3;stroke-linecap:round;stroke-linejoin:miter;stroke-miterlimit:4;stroke-dasharray:none;stroke-opacity:1" id="rect4137" d="M 7 1 L 7 7 L 9 7 L 9 1 L 7 1 z M 7 13 L 7 15 L 9 15 L 9 13 L 7 13 z" transform="translate(0,1036.3622)"/><path style="opacity:1;fill:#e0e0e0;fill-opacity:1;stroke:none;stroke-width:2;stroke-linecap:butt;stroke-linejoin:round;stroke-miterlimit:4;stroke-dasharray:none;stroke-dashoffset:0;stroke-opacity:1" id="path4190" d="m 11,1039.7528 0,2.0137 a 5,2.0000043 0 0 1 2,1.5957 5,2.0000043 0 0 1 -5,2 5,2.0000043 0 0 1 -5,-2 5,2.0000043 0 0 1 2,-1.5977 l 0,-2.0097 a 7,3.9999957 0 0 0 -4,3.6074 7,3.9999957 0 0 0 7,4 7,3.9999957 0 0 0 7,-4 7,3.9999957 0 0 0 -4,-3.6094 z"/></g></svg>