<svg xmlns="http://www.w3.org/2000/svg" xmlns:svg="http://www.w3.org/2000/svg" id="svg2" width="16" height="16" version="1.1" viewBox="0 0 16 16"><metadata id="metadata7"/><g id="layer1" transform="translate(0,-1036.3622)"><path style="fill:#2998ff;fill-opacity:1;fill-rule:evenodd;stroke:none;stroke-width:1px;stroke-linecap:butt;stroke-linejoin:miter;stroke-opacity:1" id="path4194" d="M 8 1 L 1 4 L 1 12 L 8 15 L 15 12 L 15 4 L 8 1 z" transform="translate(0,1036.3622)"/><path style="fill:#2998ff;fill-opacity:1;fill-rule:evenodd;stroke:none;stroke-width:1px;stroke-linecap:butt;stroke-linejoin:miter;stroke-opacity:1" id="path4151" d="m 8,1037.3622 -7,3 0,8 7,3 7,-3 0,-8 -7,-3 z"/><path style="fill:#2998ff;fill-rule:evenodd;stroke:none;stroke-width:1px;stroke-linecap:butt;stroke-linejoin:miter;stroke-opacity:1;fill-opacity:1" id="path4160" d="m 3,1041.3622 0,6 5,2 5,-2 0,-6 -5,-2 z"/><path style="fill:#a2d2ff;fill-rule:evenodd;stroke:none;stroke-width:1px;stroke-linecap:butt;stroke-linejoin:miter;stroke-opacity:1;fill-opacity:1" id="path4164" d="m 8,1049.3622 5,-2 -5,-2 -5,2 z"/><path style="fill:#68b6ff;fill-rule:evenodd;stroke:none;stroke-width:1px;stroke-linecap:butt;stroke-linejoin:miter;stroke-opacity:1;fill-opacity:1" id="path4166" d="m 8,1045.3622 5,2 0,-6 -5,-2 z"/><path style="fill:#a2d2ff;fill-opacity:1;fill-rule:evenodd;stroke:none;stroke-width:1px;stroke-linecap:butt;stroke-linejoin:miter;stroke-opacity:1" id="path4149" d="M 8,1 1,4 3,5 8,3 13,5 15,4 Z" transform="translate(0,1036.3622)"/><path style="fill:#68b6ff;fill-opacity:1;fill-rule:evenodd;stroke:none;stroke-width:1px;stroke-linecap:butt;stroke-linejoin:miter;stroke-opacity:1" id="path4143" d="M 1,4 1,12 8,15 8,13 3,11 3,5 Z" transform="translate(0,1036.3622)"/><path style="fill:#2998ff;fill-opacity:1;fill-rule:evenodd;stroke:none;stroke-width:1px;stroke-linecap:butt;stroke-linejoin:miter;stroke-opacity:1" id="path4145" d="m 15,4 -2,1 0,6 -5,2 0,2 7,-3 z" transform="translate(0,1036.3622)"/></g></svg>