<svg xmlns="http://www.w3.org/2000/svg" xmlns:svg="http://www.w3.org/2000/svg" id="svg2" width="16" height="16" version="1.1" viewBox="0 0 16 16"><metadata id="metadata7"/><g id="layer1" transform="translate(0,-1036.3622)"><path style="opacity:1;fill:#e0e0e0;fill-opacity:.99607843;stroke:none;stroke-width:3;stroke-linecap:round;stroke-linejoin:round;stroke-miterlimit:4;stroke-dasharray:none;stroke-dashoffset:0;stroke-opacity:1" id="rect4140" d="M 8 1 L 6.5 2.5 L 5 4 L 7 4 L 7 7 L 4 7 L 4 5 L 2.5 6.5 L 1 8 L 2.5 9.5 L 4 11 L 4 9 L 7 9 L 7 12 L 5 12 L 6.5 13.5 L 8 15 L 9.5 13.5 L 11 12 L 9 12 L 9 9 L 12 9 L 12 11 L 13.5 9.5 L 15 8 L 13.5 6.5 L 12 5 L 12 7 L 9 7 L 9 4 L 11 4 L 9.5 2.5 L 8 1 z" transform="translate(0,1036.3622)"/></g></svg>