<svg xmlns="http://www.w3.org/2000/svg" xmlns:svg="http://www.w3.org/2000/svg" xmlns:xlink="http://www.w3.org/1999/xlink" id="svg2" width="128" height="4" version="1.1" viewBox="0 0 128 4"><defs id="defs4"><linearGradient id="linearGradient4211"><stop style="stop-color:#84ffb1;stop-opacity:1" id="stop4213" offset="0"/><stop id="stop4221" offset=".5" style="stop-color:#e1dc7a;stop-opacity:1"/><stop style="stop-color:#ff8484;stop-opacity:1" id="stop4215" offset="1"/></linearGradient><linearGradient id="linearGradient4219" x1="0" x2="128" y1="2" y2="2" gradientUnits="userSpaceOnUse" xlink:href="#linearGradient4211"/></defs><metadata id="metadata7"/><g id="layer1" transform="translate(0,-1048.3622)"><path style="opacity:1;fill:url(#linearGradient4219);fill-opacity:1;stroke:none;stroke-width:3;stroke-linecap:round;stroke-linejoin:miter;stroke-miterlimit:4;stroke-dasharray:none;stroke-dashoffset:0;stroke-opacity:1" id="rect4204" d="M 2 0 A 2 2 0 0 0 0 2 A 2 2 0 0 0 2 4 L 77 4 L 80 4 L 82 4 L 85 4 L 100 4 L 100 0 L 85 0 L 82 0 L 80 0 L 77 0 L 2 0 z M 102 0 L 102 4 L 126 4 A 2 2 0 0 0 128 2 A 2 2 0 0 0 126 0 L 102 0 z" transform="translate(0,1048.3622)"/><path style="opacity:1;fill:#000;fill-opacity:.23529412;stroke:none;stroke-width:3;stroke-linecap:round;stroke-linejoin:miter;stroke-miterlimit:4;stroke-dasharray:none;stroke-dashoffset:0;stroke-opacity:1" id="path4242" d="M 2 0 A 2 2 0 0 0 0 2 A 2 2 0 0 0 2 4 L 77 4 L 80 4 L 82 4 L 85 4 L 100 4 L 100 0 L 85 0 L 82 0 L 80 0 L 77 0 L 2 0 z M 102 0 L 102 4 L 126 4 A 2 2 0 0 0 128 2 A 2 2 0 0 0 126 0 L 102 0 z" transform="translate(0,1048.3622)"/></g></svg>