<svg xmlns="http://www.w3.org/2000/svg" xmlns:svg="http://www.w3.org/2000/svg" id="svg2" width="16" height="16" version="1.1" viewBox="0 0 16 16"><metadata id="metadata7"/><g id="layer1" transform="translate(0,-1036.3622)"><path style="color:#000;font-style:normal;font-variant:normal;font-weight:400;font-stretch:normal;font-size:medium;line-height:normal;font-family:sans-serif;text-indent:0;text-align:start;text-decoration:none;text-decoration-line:none;text-decoration-style:solid;text-decoration-color:#000;letter-spacing:normal;word-spacing:normal;text-transform:none;direction:ltr;block-progression:tb;writing-mode:lr-tb;baseline-shift:baseline;text-anchor:start;white-space:normal;clip-rule:nonzero;display:inline;overflow:visible;visibility:visible;opacity:1;isolation:auto;mix-blend-mode:normal;color-interpolation:sRGB;color-interpolation-filters:linearRGB;solid-color:#000;solid-opacity:1;fill:#a5efac;fill-opacity:1;fill-rule:evenodd;stroke:none;stroke-width:2;stroke-linecap:butt;stroke-linejoin:round;stroke-miterlimit:4;stroke-dasharray:none;stroke-dashoffset:0;stroke-opacity:1;color-rendering:auto;image-rendering:auto;shape-rendering:auto;text-rendering:auto;enable-background:accumulate" id="path4164" d="M 6 3 A 1.0001 1.0001 0 0 0 5.2929688 3.2929688 L 1.2929688 7.2929688 A 1.0001 1.0001 0 0 0 1.2929688 8.7070312 L 5.2929688 12.707031 A 1.0001 1.0001 0 0 0 6 13 L 14 13 A 1.0001 1.0001 0 0 0 15 12 L 15 4 A 1.0001 1.0001 0 0 0 14 3 L 6 3 z M 5 7 A 1 1 0 0 1 6 8 A 1 1 0 0 1 5 9 A 1 1 0 0 1 4 8 A 1 1 0 0 1 5 7 z" transform="translate(0,1036.3622)"/></g></svg>