<svg xmlns="http://www.w3.org/2000/svg" xmlns:svg="http://www.w3.org/2000/svg" id="svg2" width="16" height="16" version="1.1" viewBox="0 0 16 16"><metadata id="metadata7"/><g id="layer1" transform="translate(0,-1036.3622)"><path style="opacity:1;fill:#68b6ff;fill-opacity:1;stroke:none;stroke-width:4;stroke-linecap:butt;stroke-linejoin:round;stroke-miterlimit:4;stroke-dasharray:none;stroke-dashoffset:0;stroke-opacity:1" id="path4135" d="M 8 1 A 4 4 0 0 0 4 5 L 4 11 A 4 4 0 0 0 8 15 A 4 4 0 0 0 12 11 L 12 5 A 4 4 0 0 0 8 1 z M 8 3 A 2.0000174 2.0000174 0 0 1 10 5 L 10 11 A 2.0000174 2.0000174 0 0 1 8 13 A 2.0000174 2.0000174 0 0 1 6 11 L 6 5 A 2.0000174 2.0000174 0 0 1 8 3 z" transform="translate(0,1036.3622)"/></g></svg>