<svg xmlns="http://www.w3.org/2000/svg" xmlns:svg="http://www.w3.org/2000/svg" id="svg2" width="128" height="128" version="1.1" viewBox="0 0 128 128"><metadata id="metadata7"/><g id="layer1" transform="translate(0,-924.3622)"><path style="color:#000;font-style:normal;font-variant:normal;font-weight:400;font-stretch:normal;font-size:medium;line-height:normal;font-family:sans-serif;text-indent:0;text-align:start;text-decoration:none;text-decoration-line:none;text-decoration-style:solid;text-decoration-color:#000;letter-spacing:normal;word-spacing:normal;text-transform:none;direction:ltr;block-progression:tb;writing-mode:lr-tb;baseline-shift:baseline;text-anchor:start;white-space:normal;clip-rule:nonzero;display:inline;overflow:visible;visibility:visible;opacity:1;isolation:auto;mix-blend-mode:normal;color-interpolation:sRGB;color-interpolation-filters:linearRGB;solid-color:#000;solid-opacity:1;fill:#f7f5cf;fill-opacity:1;fill-rule:evenodd;stroke:none;stroke-width:4;stroke-linecap:butt;stroke-linejoin:round;stroke-miterlimit:4;stroke-dasharray:none;stroke-dashoffset:0;stroke-opacity:1;color-rendering:auto;image-rendering:auto;shape-rendering:auto;text-rendering:auto;enable-background:accumulate" id="path4187" d="m 99.765624,934.3602 a 8.0008,8.001126 0 0 0 -1.960936,0.296 l -56,16.0004 A 8.0008,8.001126 0 0 0 36,958.353 l 0,48.1192 a 18.000034,18.000768 0 0 0 -2,-0.116 18.000034,18.000768 0 0 0 -18,18.0008 18.000034,18.000768 0 0 0 18,18.0008 18.000034,18.000768 0 0 0 17.875,-16.0008 l 0.125,0 0,-2 0,-59.9632 40,-11.4304 0,37.5172 a 18,18.000734 0 0 0 -2,-0.124 18,18.000734 0 0 0 -18,18.0008 18,18.000734 0 0 0 18,18.0004 18,18.000734 0 0 0 17.875,-16.0004 l 0.125,0 0,-2 0,-66.0028 a 8.0008,8.001126 0 0 0 -8.234376,-7.9924 z"/></g></svg>