<svg xmlns="http://www.w3.org/2000/svg" xmlns:svg="http://www.w3.org/2000/svg" id="svg2" width="16" height="16" version="1.1" viewBox="0 0 16 16"><metadata id="metadata7"/><g id="layer1" transform="translate(0,-1036.3622)"><path style="opacity:1;fill:#e0e0e0;fill-opacity:.99215686;stroke:none;stroke-width:3;stroke-linecap:round;stroke-linejoin:round;stroke-miterlimit:4;stroke-dasharray:none;stroke-dashoffset:0;stroke-opacity:1" id="rect4154" d="M 3 2 A 2 1.9999913 0 0 0 1 4 L 1 9 A 2 1.9999913 0 0 0 3 11 L 13 11 A 2 1.9999913 0 0 0 15 9 L 15 4 A 2 1.9999913 0 0 0 13 2 L 3 2 z M 3 6 L 5 6 L 5 7 L 3 7 L 3 6 z M 8 6 A 1 1 0 0 1 9 7 L 9 8 A 1 1 0 0 1 8 9 A 1 1 0 0 1 7 8 L 7 7 A 1 1 0 0 1 8 6 z M 11 6 L 13 6 L 13 7 L 11 7 L 11 6 z" transform="translate(0,1036.3622)"/><path style="fill:#e1e1e1;fill-opacity:.99215686;fill-rule:evenodd;stroke:none;stroke-width:1px;stroke-linecap:butt;stroke-linejoin:miter;stroke-opacity:1" id="path4173" d="m 6,1047.3622 0,3 3,-3 z"/></g></svg>