<svg xmlns="http://www.w3.org/2000/svg" xmlns:svg="http://www.w3.org/2000/svg" id="svg2" width="16" height="16" version="1.1" viewBox="0 0 16 16"><metadata id="metadata7"/><g id="layer1" transform="translate(0,-1036.3622)"><path style="opacity:1;fill:#a5b7f6;fill-opacity:.98823529;stroke:none;stroke-width:2;stroke-linecap:round;stroke-linejoin:round;stroke-miterlimit:4;stroke-dasharray:none;stroke-dashoffset:0;stroke-opacity:1" id="path4155" d="m 748.13245,734.23291 a 4,4 0 0 1 -2,3.4641 4,4 0 0 1 -4,0 4,4 0 0 1 -2,-3.4641 l 4,0 z" transform="matrix(0.70710678,0.70710678,-0.70710678,0.70710678,0,0)"/><circle style="opacity:1;fill:#a5b7f6;fill-opacity:.98823529;stroke:none;stroke-width:2;stroke-linecap:round;stroke-linejoin:round;stroke-miterlimit:4;stroke-dasharray:none;stroke-dashoffset:0;stroke-opacity:1" id="path4159" cx="7" cy="1045.362" r="1"/><path style="opacity:1;fill:#a5b7f6;fill-opacity:.98823529;stroke:none;stroke-width:2;stroke-linecap:round;stroke-linejoin:round;stroke-miterlimit:4;stroke-dasharray:none;stroke-dashoffset:0;stroke-opacity:1" id="circle4163" d="m 13.242641,1039.1196 a 6.0000172,6.0000172 0 0 0 -8.4852817,0 l 0.7071068,0.7071 a 5.0000172,5.0000172 0 0 1 7.0710679,0 5.0000172,5.0000172 0 0 1 0,7.071 l 0.707107,0.7071 a 6.0000172,6.0000172 0 0 0 0,-8.4852 z"/><path style="opacity:1;fill:#a5b7f6;fill-opacity:.98823529;stroke:none;stroke-width:2;stroke-linecap:round;stroke-linejoin:round;stroke-miterlimit:4;stroke-dasharray:none;stroke-dashoffset:0;stroke-opacity:1" id="circle4168" d="m 11.828427,1040.5338 a 4.0000172,4.0000172 0 0 0 -5.6568541,0 l 0.7071068,0.7071 a 3.0000174,3.0000174 0 0 1 4.2426403,0 3.0000174,3.0000174 0 0 1 0,4.2426 l 0.707107,0.7071 a 4.0000172,4.0000172 0 0 0 0,-5.6568 z"/><path style="opacity:1;fill:#a5b7f6;fill-opacity:.98823529;stroke:none;stroke-width:2;stroke-linecap:round;stroke-linejoin:round;stroke-miterlimit:4;stroke-dasharray:none;stroke-dashoffset:0;stroke-opacity:1" id="circle4172" d="m 10.414214,1041.948 a 2,2 0 0 0 -2.8284276,0 l 0.7071068,0.7071 a 1.0000174,1.0000174 0 0 1 1.4142136,0 1.0000174,1.0000174 0 0 1 0,1.4142 l 0.7071072,0.7071 a 2,2 0 0 0 0,-2.8284 z"/><path style="fill:#a5b7f6;fill-opacity:.98823529;fill-rule:evenodd;stroke:none;stroke-width:1px;stroke-linecap:butt;stroke-linejoin:miter;stroke-opacity:1" id="path4181" d="m 1,1051.3622 4,-5 1,0 0,5 z"/></g></svg>