<svg xmlns="http://www.w3.org/2000/svg" xmlns:svg="http://www.w3.org/2000/svg" id="svg2" width="16" height="16" version="1.1" viewBox="0 0 16 16"><metadata id="metadata7"/><g id="layer1" transform="translate(0,-1036.3622)"><rect style="opacity:1;fill:#e0e0e0;fill-opacity:1;stroke:none;stroke-width:2;stroke-linecap:round;stroke-linejoin:round;stroke-miterlimit:4;stroke-dasharray:none;stroke-dashoffset:0;stroke-opacity:.99607843" id="rect4212" width="14" height="2" x="1" y="1037.362"/><rect id="rect4214" width="2" height="14" x="7" y="1037.362" style="opacity:1;fill:#fcef9c;fill-opacity:1;stroke:none;stroke-width:2;stroke-linecap:round;stroke-linejoin:round;stroke-miterlimit:4;stroke-dasharray:none;stroke-dashoffset:0;stroke-opacity:.99607843"/><rect style="opacity:1;fill:#fcef9c;fill-opacity:1;stroke:none;stroke-width:2;stroke-linecap:round;stroke-linejoin:round;stroke-miterlimit:4;stroke-dasharray:none;stroke-dashoffset:0;stroke-opacity:.99607843" id="rect4216" width="6" height="1" x="5" y="1050.362"/><path style="opacity:1;fill:#fc9c9c;fill-opacity:.99607843;stroke:none;stroke-width:2;stroke-linecap:round;stroke-linejoin:round;stroke-miterlimit:4;stroke-dasharray:none;stroke-dashoffset:0;stroke-opacity:.99607843" id="rect4218" d="M 1 1 L 1 3 L 1 5 L 2 5 L 2 4 L 3 4 L 3 3 L 4 3 L 4 1 L 2 1 L 1 1 z" transform="translate(0,1036.3622)"/><path style="opacity:1;fill:#be9cfc;fill-opacity:.99607843;stroke:none;stroke-width:2;stroke-linecap:round;stroke-linejoin:round;stroke-miterlimit:4;stroke-dasharray:none;stroke-dashoffset:0;stroke-opacity:.99607843" id="rect4220" d="M 12 1 L 12 3 L 13 3 L 13 4 L 14 4 L 14 5 L 15 5 L 15 3 L 15 1 L 14 1 L 12 1 z" transform="translate(0,1036.3622)"/><rect style="opacity:1;fill:#fcef9c;fill-opacity:1;stroke:none;stroke-width:2;stroke-linecap:round;stroke-linejoin:round;stroke-miterlimit:4;stroke-dasharray:none;stroke-dashoffset:0;stroke-opacity:.99607843" id="rect4259" width="1" height="1" x="9" y="1049.362"/><rect id="rect4261" width="1" height="1" x="6" y="1049.362" style="opacity:1;fill:#fcef9c;fill-opacity:1;stroke:none;stroke-width:2;stroke-linecap:round;stroke-linejoin:round;stroke-miterlimit:4;stroke-dasharray:none;stroke-dashoffset:0;stroke-opacity:.99607843"/><path style="opacity:1;fill:#a5efac;fill-opacity:1;stroke:none;stroke-width:2;stroke-linecap:round;stroke-linejoin:round;stroke-miterlimit:4;stroke-dasharray:none;stroke-dashoffset:0;stroke-opacity:.99607843" id="rect4276" d="M 4 1 L 4 3 L 7 3 L 7 6 L 9 6 L 9 3 L 12 3 L 12 1 L 4 1 z" transform="translate(0,1036.3622)"/><rect style="opacity:1;fill:#a5b7f8;fill-opacity:.98823529;stroke:none;stroke-width:2;stroke-linecap:round;stroke-linejoin:round;stroke-miterlimit:4;stroke-dasharray:none;stroke-dashoffset:0;stroke-opacity:.99607843" id="rect4307" width="2" height="5" x="7" y="1042.362"/></g></svg>