<svg xmlns="http://www.w3.org/2000/svg" xmlns:svg="http://www.w3.org/2000/svg" id="svg2" width="16" height="16" version="1.1" viewBox="0 0 16 16"><metadata id="metadata7"/><g id="layer1" transform="translate(0,-1036.3622)"><g id="layer1-8" transform="translate(0,-1.6949463e-5)"><path style="color:#000;font-style:normal;font-variant:normal;font-weight:400;font-stretch:normal;font-size:medium;line-height:normal;font-family:sans-serif;text-indent:0;text-align:start;text-decoration:none;text-decoration-line:none;text-decoration-style:solid;text-decoration-color:#000;letter-spacing:normal;word-spacing:normal;text-transform:none;direction:ltr;block-progression:tb;writing-mode:lr-tb;baseline-shift:baseline;text-anchor:start;white-space:normal;clip-rule:nonzero;display:inline;overflow:visible;visibility:visible;opacity:1;isolation:auto;mix-blend-mode:normal;color-interpolation:sRGB;color-interpolation-filters:linearRGB;solid-color:#000;solid-opacity:1;fill:#ffd684;fill-opacity:1;fill-rule:evenodd;stroke:none;stroke-width:2;stroke-linecap:butt;stroke-linejoin:round;stroke-miterlimit:4;stroke-dasharray:none;stroke-dashoffset:0;stroke-opacity:1;color-rendering:auto;image-rendering:auto;shape-rendering:auto;text-rendering:auto;enable-background:accumulate" id="path4155" d="M 8.0292969 2.0019531 A 1.0001 1.0001 0 0 0 7.1425781 2.4863281 L 1.1425781 12.486328 A 1.0001 1.0001 0 0 0 2 14 L 14 14 A 1.0001 1.0001 0 0 0 14.857422 12.486328 L 8.8574219 2.4863281 A 1.0001 1.0001 0 0 0 8.0292969 2.0019531 z M 7 5 L 9 5 L 9 10 L 7 10 L 7 5 z M 7 11 L 9 11 L 9 13 L 7 13 L 7 11 z" transform="translate(0,1036.3622)"/></g></g></svg>