<svg xmlns="http://www.w3.org/2000/svg" xmlns:svg="http://www.w3.org/2000/svg" id="svg2" width="16" height="16" version="1.1" viewBox="0 0 16 16"><metadata id="metadata7"/><g id="layer1" transform="translate(0,-1036.3622)"><path style="opacity:1;fill:#fc9c9c;fill-opacity:.99607843;stroke:none;stroke-width:2;stroke-linecap:butt;stroke-linejoin:bevel;stroke-miterlimit:4;stroke-dasharray:none;stroke-dashoffset:0;stroke-opacity:.99607843" id="path4155" d="m 14,1046.3622 -12,0 c 0,-2.7614 2.6862915,-5 6,-5 3.313708,0 6,2.2386 6,5 z"/><path style="opacity:1;fill:#fc9c9c;fill-opacity:.99607843;stroke:none;stroke-width:2;stroke-linecap:butt;stroke-linejoin:bevel;stroke-miterlimit:4;stroke-dasharray:none;stroke-dashoffset:0;stroke-opacity:.99607843" id="rect4158" d="M 6 1 A 1 1 0 0 0 5 2 L 5 7 L 11 7 L 11 2 A 1 1 0 0 0 10 1 L 6 1 z" transform="translate(0,1036.3622)"/><circle style="opacity:1;fill:#fc9c9c;fill-opacity:.99607843;stroke:none;stroke-width:2;stroke-linecap:butt;stroke-linejoin:bevel;stroke-miterlimit:4;stroke-dasharray:none;stroke-dashoffset:0;stroke-opacity:.99607843" id="path4160" cx="8" cy="1046.362" r="2"/><rect style="opacity:1;fill:#fc9c9c;fill-opacity:.99607843;stroke:none;stroke-width:2;stroke-linecap:butt;stroke-linejoin:bevel;stroke-miterlimit:4;stroke-dasharray:none;stroke-dashoffset:0;stroke-opacity:.99607843" id="rect4162" width="2" height="2" x="7" y="1049.362"/><rect id="rect4164" width="2" height="2" x="-903.176" y="533.109" transform="matrix(0.5,-0.8660254,0.8660254,0.5,0,0)" style="opacity:1;fill:#fc9c9c;fill-opacity:.99607843;stroke:none;stroke-width:2;stroke-linecap:butt;stroke-linejoin:bevel;stroke-miterlimit:4;stroke-dasharray:none;stroke-dashoffset:0;stroke-opacity:.99607843"/><rect style="opacity:1;fill:#fc9c9c;fill-opacity:.99607843;stroke:none;stroke-width:2;stroke-linecap:butt;stroke-linejoin:bevel;stroke-miterlimit:4;stroke-dasharray:none;stroke-dashoffset:0;stroke-opacity:.99607843" id="rect4166" width="2" height="2" x="909.176" y="519.253" transform="matrix(0.5,0.8660254,-0.8660254,0.5,0,0)"/></g></svg>