<svg xmlns="http://www.w3.org/2000/svg" xmlns:svg="http://www.w3.org/2000/svg" id="svg2" width="16" height="16" version="1.1" viewBox="0 0 16 16"><metadata id="metadata7"/><g id="layer1" transform="translate(0,-1036.3622)"><path style="opacity:1;fill:#f1f1f1;fill-opacity:1;stroke:none;stroke-width:3;stroke-linecap:round;stroke-linejoin:miter;stroke-miterlimit:4;stroke-dasharray:none;stroke-dashoffset:0;stroke-opacity:1" id="circle4160" d="M 8 1 A 7 7 0 0 0 1 8 A 7 7 0 0 0 8 15 A 7 7 0 0 0 15 8 A 7 7 0 0 0 8 1 z M 8 4 A 4.0000172 4.0000172 0 0 1 12 8 A 4.0000172 4.0000172 0 0 1 8 12 A 4.0000172 4.0000172 0 0 1 4 8 A 4.0000172 4.0000172 0 0 1 8 4 z" transform="translate(0,1036.3622)"/><path style="opacity:1;fill:#ff8484;fill-opacity:1;stroke:none;stroke-width:3;stroke-linecap:round;stroke-linejoin:miter;stroke-miterlimit:4;stroke-dasharray:none;stroke-dashoffset:0;stroke-opacity:1" id="circle4154" d="m 8,1 0,3 c 1.1045715,-4.8e-6 2.104267,0.4480167 2.828125,1.171875 L 12.949219,3.0507812 C 11.68247,1.7840321 9.9329986,1.0000047 8,1 Z" transform="translate(0,1036.3622)"/><path id="path4163" d="m 15,1044.3622 -3,0 c 5e-6,1.1046 -0.448017,2.1043 -1.171875,2.8281 l 2.121094,2.1211 c 1.266749,-1.2667 2.050776,-3.0162 2.050781,-4.9492 z" style="opacity:1;fill:#ff8484;fill-opacity:1;stroke:none;stroke-width:3;stroke-linecap:round;stroke-linejoin:miter;stroke-miterlimit:4;stroke-dasharray:none;stroke-dashoffset:0;stroke-opacity:1"/><path style="opacity:1;fill:#ff8484;fill-opacity:1;stroke:none;stroke-width:3;stroke-linecap:round;stroke-linejoin:miter;stroke-miterlimit:4;stroke-dasharray:none;stroke-dashoffset:0;stroke-opacity:1" id="path4165" d="m 8,1051.3622 0,-3 c -1.1046,0 -2.1043,-0.448 -2.8281,-1.1719 l -2.1211,2.1211 c 1.2667,1.2668 3.0162,2.0508 4.9492,2.0508 z"/><path id="path4167" d="m 1,1044.3622 3,0 c 0,-1.1046 0.448,-2.1043 1.1719,-2.8281 L 3.0508,1039.413 C 1.784,1040.6797 1,1042.4292 1,1044.3622 Z" style="opacity:1;fill:#ff8484;fill-opacity:1;stroke:none;stroke-width:3;stroke-linecap:round;stroke-linejoin:miter;stroke-miterlimit:4;stroke-dasharray:none;stroke-dashoffset:0;stroke-opacity:1"/></g></svg>