<svg xmlns="http://www.w3.org/2000/svg" xmlns:svg="http://www.w3.org/2000/svg" id="svg2" width="16" height="16" version="1.1" viewBox="0 0 16 16"><metadata id="metadata7"/><g id="layer1" transform="translate(0,-1036.3622)"><rect style="opacity:1;fill:#fefeff;fill-opacity:1;stroke:none;stroke-width:2;stroke-linecap:butt;stroke-linejoin:bevel;stroke-miterlimit:4;stroke-dasharray:none;stroke-dashoffset:0;stroke-opacity:.99607843" id="rect4175" width="1" height="1" x="20" y="1042.362"/><rect id="rect4177" width="1" height="1" x="29" y="1042.362" style="opacity:1;fill:#fefeff;fill-opacity:1;stroke:none;stroke-width:2;stroke-linecap:butt;stroke-linejoin:bevel;stroke-miterlimit:4;stroke-dasharray:none;stroke-dashoffset:0;stroke-opacity:.99607843"/><path style="opacity:1;fill:#a5b7f6;fill-opacity:.98823529;stroke:none;stroke-width:2;stroke-linecap:butt;stroke-linejoin:bevel;stroke-miterlimit:4;stroke-dasharray:none;stroke-dashoffset:0;stroke-opacity:.99607843" id="rect4179" d="M 3 1 A 2 2 0 0 0 1.5859375 1.5859375 A 2 2 0 0 0 1 3 L 1 13 A 2 2 0 0 0 1.5859375 14.414062 A 2 2 0 0 0 3 15 L 13 15 A 2 2 0 0 0 15 13 L 15 3 A 2 2 0 0 0 13 1 L 3 1 z M 3 2 L 13 2 A 1.0000174 1.0000174 0 0 1 14 3 L 14 13 A 1.0000174 1.0000174 0 0 1 13 14 L 3 14 A 1.0000174 1.0000174 0 0 1 2 13 L 2 3 A 1.0000174 1.0000174 0 0 1 3 2 z" transform="translate(0,1036.3622)"/><rect style="opacity:1;fill:#a5b7f6;fill-opacity:.98823529;stroke:none;stroke-width:2;stroke-linecap:butt;stroke-linejoin:bevel;stroke-miterlimit:4;stroke-dasharray:none;stroke-dashoffset:0;stroke-opacity:.99607843" id="rect4195" width="2" height="2" x="3" y="1039.362"/><rect id="rect4197" width="2" height="2" x="3" y="1047.362" style="opacity:1;fill:#a5b7f6;fill-opacity:.98823529;stroke:none;stroke-width:2;stroke-linecap:butt;stroke-linejoin:bevel;stroke-miterlimit:4;stroke-dasharray:none;stroke-dashoffset:0;stroke-opacity:.99607843"/><rect style="opacity:1;fill:#a5b7f6;fill-opacity:.98823529;stroke:none;stroke-width:2;stroke-linecap:butt;stroke-linejoin:bevel;stroke-miterlimit:4;stroke-dasharray:none;stroke-dashoffset:0;stroke-opacity:.99607843" id="rect4199" width="2" height="2" x="11" y="1047.362"/><rect id="rect4201" width="2" height="2" x="11" y="1039.362" style="opacity:1;fill:#a5b7f6;fill-opacity:.98823529;stroke:none;stroke-width:2;stroke-linecap:butt;stroke-linejoin:bevel;stroke-miterlimit:4;stroke-dasharray:none;stroke-dashoffset:0;stroke-opacity:.99607843"/></g></svg>