<svg xmlns="http://www.w3.org/2000/svg" xmlns:svg="http://www.w3.org/2000/svg" id="svg2" width="16" height="16" version="1.1" viewBox="0 0 16 16"><metadata id="metadata7"/><g id="layer1" transform="translate(0,-1036.3622)"><path style="opacity:1;fill:#c5c5c5;fill-opacity:1;stroke:none;stroke-width:2;stroke-linecap:round;stroke-linejoin:round;stroke-miterlimit:4;stroke-dasharray:none;stroke-dashoffset:0;stroke-opacity:1" id="rect4160" d="M 1 8 L 1 11 L 15 11 L 15 8 L 1 8 z M 2 9 L 3 9 L 3 10 L 2 10 L 2 9 z M 4 9 L 5 9 L 5 10 L 4 10 L 4 9 z M 1 12 L 1 15 L 15 15 L 15 12 L 1 12 z M 2 13 L 3 13 L 3 14 L 2 14 L 2 13 z M 4 13 L 5 13 L 5 14 L 4 14 L 4 13 z" transform="translate(0,1036.3622)"/><rect style="opacity:1;fill:#c5c5c5;fill-opacity:1;stroke:none;stroke-width:2;stroke-linecap:round;stroke-linejoin:round;stroke-miterlimit:4;stroke-dasharray:none;stroke-dashoffset:0;stroke-opacity:1" id="rect4173" width="6" height="4" x="5" y="1038.362"/><rect style="opacity:1;fill:#c5c5c5;fill-opacity:1;stroke:none;stroke-width:2;stroke-linecap:round;stroke-linejoin:round;stroke-miterlimit:4;stroke-dasharray:none;stroke-dashoffset:0;stroke-opacity:1" id="rect4175" width="3" height="1" x="5" y="1037.362"/></g></svg>