<svg xmlns="http://www.w3.org/2000/svg" xmlns:svg="http://www.w3.org/2000/svg" id="svg2" width="128" height="128" version="1.1" viewBox="0 0 128 128"><metadata id="metadata7"/><g id="layer1" transform="translate(0,-924.3622)"><path style="opacity:1;fill:#f7f5cf;fill-opacity:1;stroke:none;stroke-width:2;stroke-linecap:round;stroke-linejoin:round;stroke-miterlimit:4;stroke-dasharray:none;stroke-dashoffset:0;stroke-opacity:1" id="path4162" d="m 64,930.3622 a 40.000068,40.000068 0 0 0 -40,40 40.000068,40.000068 0 0 0 40,40 40.000068,40.000068 0 0 0 40,-40 40.000068,40.000068 0 0 0 -40,-40 z m 0,12 a 28,28 0 0 1 28,28 28,28 0 0 1 -28,28 28,28 0 0 1 -28,-28 28,28 0 0 1 28,-28 z"/><path style="opacity:1;fill:#f7f5cf;fill-opacity:1;stroke:none;stroke-width:2;stroke-linecap:round;stroke-linejoin:round;stroke-miterlimit:4;stroke-dasharray:none;stroke-dashoffset:0;stroke-opacity:1" id="rect4164" d="m 48,1002.3622 0,20 a 8,8 0 0 0 8,8 l 16,0 a 8,8 0 0 0 8,-8 l 0,-20 -32,0 z"/><rect style="opacity:1;fill:#f7f5cf;fill-opacity:1;stroke:none;stroke-width:2;stroke-linecap:round;stroke-linejoin:round;stroke-miterlimit:4;stroke-dasharray:none;stroke-dashoffset:0;stroke-opacity:1" id="rect4168" width="16" height="8" x="56" y="1038.362"/></g></svg>