<svg xmlns="http://www.w3.org/2000/svg" xmlns:svg="http://www.w3.org/2000/svg" id="svg2" width="16" height="16" version="1.1" viewBox="0 0 16 16"><metadata id="metadata7"/><g id="layer1" transform="translate(0,-1036.3622)"><path style="color:#000;font-style:normal;font-variant:normal;font-weight:400;font-stretch:normal;font-size:medium;line-height:normal;font-family:sans-serif;text-indent:0;text-align:start;text-decoration:none;text-decoration-line:none;text-decoration-style:solid;text-decoration-color:#000;letter-spacing:normal;word-spacing:normal;text-transform:none;direction:ltr;block-progression:tb;writing-mode:lr-tb;baseline-shift:baseline;text-anchor:start;white-space:normal;clip-rule:nonzero;display:inline;overflow:visible;visibility:visible;opacity:1;isolation:auto;mix-blend-mode:normal;color-interpolation:sRGB;color-interpolation-filters:linearRGB;solid-color:#000;solid-opacity:1;fill:#f0f0f0;fill-opacity:1;fill-rule:evenodd;stroke:none;stroke-width:2;stroke-linecap:butt;stroke-linejoin:round;stroke-miterlimit:4;stroke-dasharray:none;stroke-dashoffset:0;stroke-opacity:1;color-rendering:auto;image-rendering:auto;shape-rendering:auto;text-rendering:auto;enable-background:accumulate" id="path4155" d="M 4 3 A 1.0001 1.0001 0 0 0 3 4 L 3 12 A 1.0001 1.0001 0 0 0 4 13 L 6 13 L 6 12 L 7 12 L 7 4 L 6 4 L 6 3 L 4 3 z M 10 3 L 10 4 L 9 4 L 9 12 L 10 12 L 10 13 L 12 13 A 1.0001 1.0001 0 0 0 13 12 L 13 4 A 1.0001 1.0001 0 0 0 12 3 L 10 3 z" transform="translate(0,1036.3622)"/><circle style="opacity:1;fill:#f0f0f0;fill-opacity:1;stroke:none;stroke-width:2;stroke-linecap:round;stroke-linejoin:round;stroke-miterlimit:4;stroke-dasharray:none;stroke-dashoffset:0;stroke-opacity:.99607843" id="path4169" cx="6" cy="1040.362" r="1"/><circle id="circle4181" cx="10" cy="1040.362" r="1" style="opacity:1;fill:#f0f0f0;fill-opacity:1;stroke:none;stroke-width:2;stroke-linecap:round;stroke-linejoin:round;stroke-miterlimit:4;stroke-dasharray:none;stroke-dashoffset:0;stroke-opacity:.99607843"/><circle style="opacity:1;fill:#f0f0f0;fill-opacity:1;stroke:none;stroke-width:2;stroke-linecap:round;stroke-linejoin:round;stroke-miterlimit:4;stroke-dasharray:none;stroke-dashoffset:0;stroke-opacity:.99607843" id="circle4183" cx="10" cy="1048.362" r="1"/><circle id="circle4185" cx="6" cy="1048.362" r="1" style="opacity:1;fill:#f0f0f0;fill-opacity:1;stroke:none;stroke-width:2;stroke-linecap:round;stroke-linejoin:round;stroke-miterlimit:4;stroke-dasharray:none;stroke-dashoffset:0;stroke-opacity:.99607843"/></g></svg>