<svg xmlns="http://www.w3.org/2000/svg" xmlns:svg="http://www.w3.org/2000/svg" id="svg2" width="16" height="16" version="1.1" viewBox="0 0 16 16"><metadata id="metadata7"/><g id="layer1" transform="translate(0,-1036.3622)"><path style="color:#000;font-style:normal;font-variant:normal;font-weight:400;font-stretch:normal;font-size:medium;line-height:normal;font-family:sans-serif;text-indent:0;text-align:start;text-decoration:none;text-decoration-line:none;text-decoration-style:solid;text-decoration-color:#000;letter-spacing:normal;word-spacing:normal;text-transform:none;direction:ltr;block-progression:tb;writing-mode:lr-tb;baseline-shift:baseline;text-anchor:start;white-space:normal;clip-rule:nonzero;display:inline;overflow:visible;visibility:visible;opacity:1;isolation:auto;mix-blend-mode:normal;color-interpolation:sRGB;color-interpolation-filters:linearRGB;solid-color:#000;solid-opacity:1;fill:#e0e0e0;fill-opacity:.99607843;fill-rule:evenodd;stroke:none;stroke-width:2;stroke-linecap:butt;stroke-linejoin:round;stroke-miterlimit:4;stroke-dasharray:none;stroke-dashoffset:0;stroke-opacity:1;color-rendering:auto;image-rendering:auto;shape-rendering:auto;text-rendering:auto;enable-background:accumulate" id="path4155" d="M 1 3 C 0.4477381 3.0000552 5.52e-05 3.4477381 0 4 L 0 12 C 5.52e-05 12.552262 0.4477381 12.999945 1 13 L 15 13 C 15.552262 12.999945 15.999945 12.552262 16 12 L 16 4 C 15.999945 3.4477381 15.552262 3.0000552 15 3 L 1 3 z M 3 5 L 5 5 L 5 7 L 7 7 L 7 9 L 5 9 L 5 11 L 3 11 L 3 9 L 1 9 L 1 7 L 3 7 L 3 5 z M 13.5 5 A 1.5 1.5 0 0 1 15 6.5 A 1.5 1.5 0 0 1 13.5 8 A 1.5 1.5 0 0 1 12 6.5 A 1.5 1.5 0 0 1 13.5 5 z M 10.5 8 A 1.4999913 1.4999913 0 0 1 12 9.5 A 1.4999913 1.4999913 0 0 1 10.5 11 A 1.4999913 1.4999913 0 0 1 9 9.5 A 1.4999913 1.4999913 0 0 1 10.5 8 z" transform="translate(0,1036.3622)"/></g></svg>