<svg xmlns="http://www.w3.org/2000/svg" xmlns:svg="http://www.w3.org/2000/svg" id="svg2" width="16" height="16" version="1.1" viewBox="0 0 16 16"><metadata id="metadata7"/><g id="layer1" transform="translate(0,-1036.3622)"><circle style="opacity:1;fill:#f0f0f0;fill-opacity:1;stroke:none;stroke-width:2;stroke-linecap:round;stroke-linejoin:round;stroke-miterlimit:4;stroke-dasharray:none;stroke-dashoffset:0;stroke-opacity:1" id="path4157" cx="8" cy="1043.362" r="2"/><rect style="opacity:1;fill:#f0f0f0;fill-opacity:1;stroke:none;stroke-width:2;stroke-linecap:round;stroke-linejoin:round;stroke-miterlimit:4;stroke-dasharray:none;stroke-dashoffset:0;stroke-opacity:1" id="rect4159" width="2" height="7" x="7" y="1044.362"/><path style="opacity:1;fill:#f0f0f0;fill-opacity:1;stroke:none;stroke-width:2;stroke-linecap:round;stroke-linejoin:round;stroke-miterlimit:4;stroke-dasharray:none;stroke-dashoffset:0;stroke-opacity:1" id="circle4163" d="M 8.0878906 1 A 6.0000172 6.0000172 0 0 0 3.7578125 2.7578125 A 6.0000172 6.0000172 0 0 0 3.7578125 11.242188 L 5.1738281 9.8261719 A 4.0000172 4.0000172 0 0 1 4 7 A 4.0000172 4.0000172 0 0 1 8 3 A 4.0000172 4.0000172 0 0 1 12 7 A 4.0000172 4.0000172 0 0 1 10.826172 9.8261719 L 12.242188 11.242188 A 6.0000172 6.0000172 0 0 0 12.242188 2.7578125 A 6.0000172 6.0000172 0 0 0 8.0878906 1 z" transform="translate(0,1036.3622)"/></g></svg>