<svg xmlns="http://www.w3.org/2000/svg" xmlns:svg="http://www.w3.org/2000/svg" id="svg2" width="16" height="16" version="1.1" viewBox="0 0 16 16"><metadata id="metadata7"/><g id="layer1" transform="translate(0,-1036.3622)"><path style="opacity:1;fill:#e0e0e0;fill-opacity:1;stroke:none;stroke-width:3;stroke-linecap:round;stroke-linejoin:miter;stroke-miterlimit:4;stroke-dasharray:none;stroke-dashoffset:0;stroke-opacity:1" id="path4176" d="M 7 1 L 6.4355469 3.2578125 A 5.0000172 5.0000172 0 0 0 5.7460938 3.5371094 L 3.7578125 2.34375 L 2.34375 3.7578125 L 3.5390625 5.7519531 A 5.0000172 5.0000172 0 0 0 3.2539062 6.4375 L 1 7 L 1 9 L 3.2578125 9.5644531 A 5.0000172 5.0000172 0 0 0 3.5371094 10.251953 L 2.34375 12.242188 L 3.7578125 13.65625 L 5.7519531 12.460938 A 5.0000172 5.0000172 0 0 0 6.4375 12.746094 L 7 15 L 9 15 L 9.5644531 12.742188 A 5.0000172 5.0000172 0 0 0 10.251953 12.462891 L 12.242188 13.65625 L 13.65625 12.242188 L 12.460938 10.248047 A 5.0000172 5.0000172 0 0 0 12.746094 9.5625 L 15 9 L 15 7 L 12.742188 6.4355469 A 5.0000172 5.0000172 0 0 0 12.462891 5.7480469 L 13.65625 3.7578125 L 12.242188 2.34375 L 10.248047 3.5390625 A 5.0000172 5.0000172 0 0 0 9.5625 3.2539062 L 9 1 L 7 1 z M 8 6 A 2.0000174 2.0000174 0 0 1 10 8 A 2.0000174 2.0000174 0 0 1 8 10 A 2.0000174 2.0000174 0 0 1 6 8 A 2.0000174 2.0000174 0 0 1 8 6 z" transform="translate(0,1036.3622)"/></g></svg>