<svg xmlns="http://www.w3.org/2000/svg" xmlns:svg="http://www.w3.org/2000/svg" id="svg2" width="16" height="16" version="1.1" viewBox="0 0 16 16"><metadata id="metadata7"/><g id="layer1" transform="translate(0,-1036.3622)"><path style="opacity:1;fill:#e0e0e0;fill-opacity:1;stroke:none;stroke-width:2;stroke-linecap:butt;stroke-linejoin:bevel;stroke-miterlimit:4;stroke-dasharray:none;stroke-dashoffset:0;stroke-opacity:.99607843" id="rect4255" d="M 6 1 L 6 2 A 1 1 0 0 0 5 3 L 5 13 L 4 13 L 4 11 L 2 11 L 2 13 A 1 1 0 0 0 2.5 13.865234 A 1 1 0 0 0 3 14 L 3 15 L 10 15 A 2 2 0 0 0 12 13 L 12 5 L 15 5 L 15 3 A 2 2 0 0 0 13 1 L 6 1 z" transform="translate(0,1036.3622)"/><path style="opacity:1;fill:#b4b4b4;fill-opacity:1;stroke:none;stroke-width:2;stroke-linecap:butt;stroke-linejoin:bevel;stroke-miterlimit:4;stroke-dasharray:none;stroke-dashoffset:0;stroke-opacity:.99607843" id="path4265" d="M 6 1 C 4.8954305 1 4 1.8954305 4 3 L 4 10 L 2 10 L 1 10 L 1 11 L 1 13 C 1 14.104569 1.8954305 15 3 15 C 4.1045695 15 5 14.104569 5 13 L 5 3 C 5 2.4477153 5.4477153 2 6 2 C 6.5522847 2 7 2.4477153 7 3 L 7 4 L 7 5 L 7 6 L 8 6 L 12 6 L 12 5 L 8 5 L 8 4 L 8 3 C 8 1.8954305 7.1045695 1 6 1 z M 2 11 L 4 11 L 4 13 C 4 13.552285 3.5522847 14 3 14 C 2.4477153 14 2 13.552285 2 13 L 2 11 z" transform="translate(0,1036.3622)"/><circle id="ellipse4234" cx="3" cy="1048.362" rx="1" ry="1" style="opacity:1;fill:#e0e0e0;fill-opacity:1;stroke:none;stroke-width:2;stroke-linecap:butt;stroke-linejoin:bevel;stroke-miterlimit:4;stroke-dasharray:none;stroke-dashoffset:0;stroke-opacity:.99607843"/></g></svg>