<svg xmlns="http://www.w3.org/2000/svg" xmlns:svg="http://www.w3.org/2000/svg" id="svg2" width="16" height="16" version="1.1" viewBox="0 0 16 16"><metadata id="metadata7"/><g id="layer1" transform="translate(0,-1036.3622)"><path style="opacity:1;fill:#a5b7f1;fill-opacity:.98823529;stroke:none;stroke-width:2;stroke-linecap:butt;stroke-linejoin:bevel;stroke-miterlimit:4;stroke-dasharray:none;stroke-dashoffset:0;stroke-opacity:1" id="circle4189" d="m 8,1037.3622 a 7,7 0 0 0 -7,7 7,7 0 0 0 7,7 7,7 0 0 0 7,-7 7,7 0 0 0 -7,-7 z m 0,1 a 6,6 0 0 1 6,6 6,6 0 0 1 -6,6 6,6 0 0 1 -6,-6 6,6 0 0 1 6,-6 z"/><path style="opacity:1;fill:#a5b7f1;fill-opacity:.98823529;stroke:none;stroke-width:2;stroke-linecap:butt;stroke-linejoin:bevel;stroke-miterlimit:4;stroke-dasharray:none;stroke-dashoffset:0;stroke-opacity:1" id="path4174" d="m 8,1037.3622 a 7,7 0 0 0 -5.087891,2.2051 c 0.104949,1.1207 0.354173,2.1959 0.894532,3.1933 A 1.9999826,1.9999826 0 0 1 5,1042.3622 a 1.9999826,1.9999826 0 0 1 1.050781,0.3008 c 1.787275,-2.6932 3.418131,-3.9904 5.191407,-4.4981 A 7,7 0 0 0 8,1037.3622 Z m -7,7 a 7,7 0 0 0 1.525391,4.3613 c 0.302809,-0.9877 0.71628,-1.9403 1.246093,-2.7871 A 1.9999826,1.9999826 0 0 1 3,1044.3622 l -2,0 z m 6,0 a 1.9999826,1.9999826 0 0 1 -0.949219,1.6992 c 1.788654,2.6953 3.420447,3.9932 5.195313,4.5 A 7,7 0 0 0 15,1044.3622 l -8,0 z"/><circle style="opacity:1;fill:#a5b7f2;fill-opacity:.98823529;stroke:none;stroke-width:2;stroke-linecap:butt;stroke-linejoin:bevel;stroke-miterlimit:4;stroke-dasharray:none;stroke-dashoffset:0;stroke-opacity:1" id="path4195" cx="5" cy="1044.362" r="2"/><path style="opacity:1;fill:#a5b7f2;fill-opacity:.98823529;stroke:none;stroke-width:2;stroke-linecap:butt;stroke-linejoin:bevel;stroke-miterlimit:4;stroke-dasharray:none;stroke-dashoffset:0;stroke-opacity:1" id="path4199" d="m 45,1037.3585 a 7,7 0 0 0 -7,7 7,7 0 0 0 7,7 7,7 0 0 0 7,-7 7,7 0 0 0 -7,-7 z m 0,1 a 6.0000172,6.0000172 0 0 1 6,6 6.0000172,6.0000172 0 0 1 -6,6 6.0000172,6.0000172 0 0 1 -6,-6 6.0000172,6.0000172 0 0 1 6,-6 z"/><path style="fill:#a5b7f3;fill-opacity:.98823529;fill-rule:evenodd;stroke:none;stroke-width:1px;stroke-linecap:butt;stroke-linejoin:miter;stroke-opacity:1" id="path4204" d="m 38,1044.3585 c 5,0.01 9,0.01 14,0 -2,-2.9934 -5,-4 -7,-4 -2,0 -5,1.0066 -7,4 z"/><path style="opacity:1;fill:#a3b6f2;fill-opacity:1;stroke:none;stroke-width:2;stroke-linecap:butt;stroke-linejoin:bevel;stroke-miterlimit:4;stroke-dasharray:none;stroke-dashoffset:0;stroke-opacity:1" id="path4224" d="m 38,1044.3585 c 0,3.866 3.134007,7 7,7 3.865993,0 7,-3.134 7,-7 -2,2.9933 -5,4 -7,4 -2,0 -5,-1.0067 -7,-4 z"/><path style="opacity:1;fill:#a3b6f2;fill-opacity:1;stroke:none;stroke-width:2;stroke-linecap:butt;stroke-linejoin:bevel;stroke-miterlimit:4;stroke-dasharray:none;stroke-dashoffset:0;stroke-opacity:1" id="path4230" d="m -9,1037.3622 a 7,7 0 0 0 -7,7 7,7 0 0 0 7,7 7,7 0 0 0 7,-7 7,7 0 0 0 -7,-7 z m 0,1 a 6,6 0 0 1 6,6 6,6 0 0 1 -6,6 6,6 0 0 1 -6,-6 6,6 0 0 1 6,-6 z"/><circle style="opacity:1;fill:#a3b6f2;fill-opacity:1;stroke:none;stroke-width:2;stroke-linecap:butt;stroke-linejoin:bevel;stroke-miterlimit:4;stroke-dasharray:none;stroke-dashoffset:0;stroke-opacity:1" id="path4235" cx="-9" cy="1044.362" r="2"/><path style="opacity:1;fill:#a3b6f2;fill-opacity:1;stroke:none;stroke-width:2;stroke-linecap:butt;stroke-linejoin:bevel;stroke-miterlimit:4;stroke-dasharray:none;stroke-dashoffset:0;stroke-opacity:1" id="path4237" d="m -9,1037.3622 a 7,7 0 0 0 -3.5,0.9375 l 3.5,6.0625 3.5,-6.0625 a 7,7 0 0 0 -3.5,-0.9375 z m 0,7 3.5,6.0625 a 7,7 0 0 0 2.5625,-2.5625 7,7 0 0 0 0.9375,-3.5 l -7,0 z m 0,0 -7,0 a 7,7 0 0 0 0.9375,3.5 7,7 0 0 0 2.5625,2.5625 l 3.5,-6.0625 z"/></g></svg>