<svg xmlns="http://www.w3.org/2000/svg" xmlns:svg="http://www.w3.org/2000/svg" id="svg2" width="16" height="16" version="1.1" viewBox="0 0 16 16"><metadata id="metadata7"/><g id="layer1" transform="translate(0,-1036.3622)"><path style="opacity:1;fill:#a5efac;fill-opacity:1;stroke:none;stroke-width:2;stroke-linecap:round;stroke-linejoin:round;stroke-miterlimit:4;stroke-dasharray:none;stroke-dashoffset:0;stroke-opacity:1" id="rect4157" d="m 9,1038.3622 a 1,1 0 0 0 -1,-1 1,1 0 0 0 -1,1 l 0,3.1738 a 3,3 0 0 1 1,-0.1738 3,3 0 0 1 1,0.1758 l 0,-3.1758 z m 0,8.8262 a 3,3 0 0 1 -1,0.1738 3,3 0 0 1 -1,-0.1758 l 0,3.1758 a 1,1 0 0 0 1,1 1,1 0 0 0 1,-1 l 0,-3.1738 z"/><circle style="opacity:1;fill:#a5efac;fill-opacity:1;stroke:none;stroke-width:2;stroke-linecap:round;stroke-linejoin:round;stroke-miterlimit:4;stroke-dasharray:none;stroke-dashoffset:0;stroke-opacity:.99607843" id="path4167" cx="8" cy="1044.362" r="2"/></g></svg>