<svg xmlns="http://www.w3.org/2000/svg" xmlns:svg="http://www.w3.org/2000/svg" id="svg2" width="16" height="16" version="1.1" viewBox="0 0 16 16"><metadata id="metadata7"/><g id="layer1" transform="translate(0,-1036.3622)"><path style="opacity:1;fill:#fc9c9c;fill-opacity:.99607843;stroke:none;stroke-width:2;stroke-linecap:butt;stroke-linejoin:bevel;stroke-miterlimit:4;stroke-dasharray:none;stroke-dashoffset:0;stroke-opacity:.99607843" id="path4204" d="M 6 2 A 4 4 0 0 0 2 6 A 4 4 0 0 0 5 9.8691406 L 5 9 L 6 9 L 6 10 L 7 10 L 7 9 L 8 9 L 9 9 L 9 10 L 10 10 L 10 9 L 11 9 L 11 9.8671875 A 4 4 0 0 0 14 6 A 4 4 0 0 0 10 2 L 6 2 z M 5 5 A 1.0000174 1.0000174 0 0 1 6 6 A 1.0000174 1.0000174 0 0 1 5 7 A 1.0000174 1.0000174 0 0 1 4 6 A 1.0000174 1.0000174 0 0 1 5 5 z M 11 5 A 1.0000174 1.0000174 0 0 1 12 6 A 1.0000174 1.0000174 0 0 1 11 7 A 1.0000174 1.0000174 0 0 1 10 6 A 1.0000174 1.0000174 0 0 1 11 5 z M 7 7 L 9 7 L 9 8 L 7 8 L 7 7 z" transform="translate(0,1036.3622)"/><path style="opacity:1;fill:#fc9c9c;fill-opacity:.99607843;stroke:none;stroke-width:2;stroke-linecap:butt;stroke-linejoin:bevel;stroke-miterlimit:4;stroke-dasharray:none;stroke-dashoffset:0;stroke-opacity:.99607843" id="rect4222" d="M 4 9 L 4 13 L 5 13 L 5 9 L 4 9 z M 11 9 L 11 13 L 12 13 L 12 9 L 11 9 z M 6 12 L 6 13 L 6 15 L 10 15 L 10 13 L 10 12 L 9 12 L 9 13 L 7 13 L 7 12 L 6 12 z" transform="translate(0,1036.3622)"/><path style="opacity:1;fill:#fc9c9c;fill-opacity:.99607843;stroke:none;stroke-width:2;stroke-linecap:butt;stroke-linejoin:bevel;stroke-miterlimit:4;stroke-dasharray:none;stroke-dashoffset:0;stroke-opacity:.99607843" id="path4238" d="m 8,1049.3622 a 2,2 0 0 1 -1,1.732 2,2 0 0 1 -2.0000001,0 A 2,2 0 0 1 4,1049.3622 l 2,0 z"/><path id="path4248" d="m 12,1049.3622 a 2,2 0 0 1 -1,1.732 2,2 0 0 1 -2.0000001,0 A 2,2 0 0 1 8,1049.3622 l 2,0 z" style="opacity:1;fill:#fc9c9c;fill-opacity:.99607843;stroke:none;stroke-width:2;stroke-linecap:butt;stroke-linejoin:bevel;stroke-miterlimit:4;stroke-dasharray:none;stroke-dashoffset:0;stroke-opacity:.99607843"/></g></svg>