<svg xmlns="http://www.w3.org/2000/svg" xmlns:svg="http://www.w3.org/2000/svg" id="svg2" width="16" height="16" version="1.1" viewBox="0 0 16 16"><metadata id="metadata7"/><g id="layer1" transform="translate(0,-1036.3622)"><path style="fill:#e0e0e0;fill-opacity:1;stroke:none;stroke-width:3;stroke-linecap:round;stroke-linejoin:miter;stroke-miterlimit:4;stroke-dasharray:none;stroke-opacity:1" id="rect4138" d="M 5 2 L 5 4 L 7 4 L 7 12 L 5 12 L 5 14 L 7 14 C 7.5522847 14 8 13.5523 8 13 C 8 13.5523 8.4477153 14 9 14 L 11 14 L 11 12 L 9 12 L 9 4 L 11 4 L 11 2 L 9 2 C 8.4477153 2 8 2.4477153 8 3 C 8 2.4477153 7.5522847 2 7 2 L 5 2 z" transform="translate(0,1036.3622)"/></g></svg>