<svg xmlns="http://www.w3.org/2000/svg" xmlns:svg="http://www.w3.org/2000/svg" id="svg2" width="16" height="16" version="1.1" viewBox="0 0 16 16"><metadata id="metadata7"/><g id="layer1" transform="translate(0,-1036.3622)"><path style="opacity:1;fill:#a5efac;fill-opacity:1;stroke:none;stroke-width:2;stroke-linecap:round;stroke-linejoin:miter;stroke-miterlimit:4;stroke-dasharray:none;stroke-dashoffset:0;stroke-opacity:1" id="path4198" d="M 3 1 A 2 2 0 0 0 1 3 A 2 2 0 0 0 2 4.7304688 L 2 11.271484 A 2 2 0 0 0 1 13 A 2 2 0 0 0 3 15 A 2 2 0 0 0 5 13 A 2 2 0 0 0 4 11.269531 L 4 5.4140625 L 8.7929688 10.207031 L 10.207031 8.7929688 L 5.4140625 4 L 11.271484 4 A 2 2 0 0 0 13 5 A 2 2 0 0 0 15 3 A 2 2 0 0 0 13 1 A 2 2 0 0 0 11.269531 2 L 4.7285156 2 A 2 2 0 0 0 3 1 z" transform="translate(0,1036.3622)"/><ellipse style="opacity:1;fill:#6e6e6e;fill-opacity:1;stroke:none;stroke-width:2;stroke-linecap:round;stroke-linejoin:miter;stroke-miterlimit:4;stroke-dasharray:none;stroke-dashoffset:0;stroke-opacity:1" id="ellipse4152" cx="3" cy="1039.362" r="2"/><g id="layer1-0" transform="matrix(0.50000003,0,0,0.50000003,7.5,525.68107)" style="fill:#a5efac;fill-opacity:1"><path id="rect4135" d="M 1.7071068,1047.8266 1,1051.3622 l 3.5355339,-0.7071 7.7781741,-7.7782 -2.828427,-2.8284 z m 9.1923882,-9.1924 2.828427,2.8285 1.414214,-1.4142 -2.828428,-2.8285 z" style="opacity:1;fill:#a5efac;fill-opacity:1;stroke:none;stroke-width:1;stroke-linecap:round;stroke-linejoin:round;stroke-miterlimit:4;stroke-dasharray:none;stroke-dashoffset:0;stroke-opacity:1"/></g></g></svg>