<svg xmlns="http://www.w3.org/2000/svg" xmlns:svg="http://www.w3.org/2000/svg" id="svg2" width="16" height="16" version="1.1" viewBox="0 0 16 16"><metadata id="metadata7"/><g id="layer1" transform="translate(0,-1036.3622)"><path style="opacity:1;fill:#e0e0e0;fill-opacity:.39215687;stroke:none;stroke-width:2;stroke-linecap:round;stroke-linejoin:round;stroke-miterlimit:4;stroke-dasharray:none;stroke-dashoffset:0;stroke-opacity:1" id="rect4697" d="M 7 1 L 7 3 L 7 7 L 3 7 C 3 6.9999766 2.554 7 2 7 C 1.446 7 1 6.9999766 1 7 L 1 9 L 1 13 C 1 13.000023 1.446 13 2 13 C 2.554 13 3 13.000023 3 13 L 3 9 L 7 9 L 7 13 L 3 13 C 2.9999766 13 3 13.446 3 14 C 3 14.554 2.9999766 15 3 15 L 7 15 C 7 15.000023 7.446 15 8 15 C 8.554 15 9 15.000023 9 15 L 9 13 L 9 9 L 13 9 C 13 9.0000234 13.446 9 14 9 C 14.554 9 15 9.0000234 15 9 L 15 7 L 15 3 C 15 2.9999766 14.554 3 14 3 C 13.446 3 13 2.9999766 13 3 L 13 7 L 9 7 L 9 3 L 13 3 C 13.000023 3 13 2.554 13 2 C 13 1.446 13.000023 1 13 1 L 9 1 C 9 0.99997659 8.554 1 8 1 C 7.446 1 7 0.99997659 7 1 z" transform="translate(0,1036.3622)"/><rect style="opacity:1;fill:#e0e0e0;fill-opacity:1;stroke:none;stroke-width:2;stroke-linecap:round;stroke-linejoin:round;stroke-miterlimit:4;stroke-dasharray:none;stroke-dashoffset:0;stroke-opacity:1" id="rect4679" width="2" height="2" x="1" y="1049.362" rx="2.5" ry="0"/><rect id="rect4681" width="2" height="2" x="1" y="1037.362" rx="2.5" ry="0" style="opacity:1;fill:#e0e0e0;fill-opacity:1;stroke:none;stroke-width:2;stroke-linecap:round;stroke-linejoin:round;stroke-miterlimit:4;stroke-dasharray:none;stroke-dashoffset:0;stroke-opacity:1"/><rect style="opacity:1;fill:#e0e0e0;fill-opacity:1;stroke:none;stroke-width:2;stroke-linecap:round;stroke-linejoin:round;stroke-miterlimit:4;stroke-dasharray:none;stroke-dashoffset:0;stroke-opacity:1" id="rect4693" width="2" height="2" x="13" y="1037.362" rx="2.5" ry="0"/><rect style="opacity:1;fill:#e0e0e0;fill-opacity:1;stroke:none;stroke-width:2;stroke-linecap:round;stroke-linejoin:round;stroke-miterlimit:4;stroke-dasharray:none;stroke-dashoffset:0;stroke-opacity:1" id="rect4726" width="2" height="2" x="13" y="1049.362" rx="2.5" ry="0"/></g></svg>