<svg xmlns="http://www.w3.org/2000/svg" xmlns:svg="http://www.w3.org/2000/svg" id="svg2" width="16" height="16" version="1.1" viewBox="0 0 16 16"><metadata id="metadata7"/><g id="layer1" transform="translate(0,-1036.3622)"><path style="opacity:1;fill:#fc9c9c;fill-opacity:.99607843;stroke:none;stroke-width:2;stroke-linecap:butt;stroke-linejoin:bevel;stroke-miterlimit:4;stroke-dasharray:none;stroke-dashoffset:0;stroke-opacity:.99607843" id="path4158" d="M 8 1 A 7 7 0 0 0 1 8 A 7 7 0 0 0 8 15 A 7 7 0 0 0 15 8 A 7 7 0 0 0 8 1 z M 8 2 A 6 6 0 0 1 14 8 A 6 6 0 0 1 8 14 A 6 6 0 0 1 2 8 A 6 6 0 0 1 8 2 z" transform="translate(0,1036.3622)"/><rect style="opacity:1;fill:#fc9c9c;fill-opacity:.99607843;stroke:none;stroke-width:2;stroke-linecap:butt;stroke-linejoin:bevel;stroke-miterlimit:4;stroke-dasharray:none;stroke-dashoffset:0;stroke-opacity:.99607843" id="rect4163" width="12" height="1" x="2" y="1041.362"/><rect id="rect4165" width="12" height="1" x="2" y="1046.362" style="opacity:1;fill:#fc9c9c;fill-opacity:.99607843;stroke:none;stroke-width:2;stroke-linecap:butt;stroke-linejoin:bevel;stroke-miterlimit:4;stroke-dasharray:none;stroke-dashoffset:0;stroke-opacity:.99607843"/><path style="fill:none;fill-rule:evenodd;stroke:#fc9c9c;stroke-width:1px;stroke-linecap:butt;stroke-linejoin:miter;stroke-opacity:.99607843" id="path4167" d="m 8,1038.3622 c 0,0 -3.5,2 -3.5,6 0,4 3.5,6 3.5,6"/><path id="path4169" d="m 8,1038.3622 c 0,0 3.5,2 3.5,6 0,4 -3.5,6 -3.5,6" style="fill:none;fill-rule:evenodd;stroke:#fc9c9c;stroke-width:1px;stroke-linecap:butt;stroke-linejoin:miter;stroke-opacity:.99607843"/></g></svg>