<svg xmlns="http://www.w3.org/2000/svg" xmlns:svg="http://www.w3.org/2000/svg" id="svg2" width="16" height="16" version="1.1" viewBox="0 0 16 16"><metadata id="metadata7"/><g id="layer1" transform="translate(0,-1036.3622)"><rect style="opacity:1;fill:#fefeff;fill-opacity:1;stroke:none;stroke-width:2;stroke-linecap:butt;stroke-linejoin:bevel;stroke-miterlimit:4;stroke-dasharray:none;stroke-dashoffset:0;stroke-opacity:.99607843" id="rect4175" width="1" height="1" x="20" y="1042.362"/><rect id="rect4177" width="1" height="1" x="29" y="1042.362" style="opacity:1;fill:#fefeff;fill-opacity:1;stroke:none;stroke-width:2;stroke-linecap:butt;stroke-linejoin:bevel;stroke-miterlimit:4;stroke-dasharray:none;stroke-dashoffset:0;stroke-opacity:.99607843"/><path style="opacity:1;fill:#e0e0e0;fill-opacity:1;stroke:none;stroke-width:2;stroke-linecap:round;stroke-linejoin:round;stroke-miterlimit:4;stroke-dasharray:none;stroke-dashoffset:0;stroke-opacity:.99607843" id="path4156" d="M 8 1 A 7.0000172 7.0000172 0 0 0 1 8 A 7.0000172 7.0000172 0 0 0 8 15 A 7.0000172 7.0000172 0 0 0 15 8 A 7.0000172 7.0000172 0 0 0 8 1 z M 8 3 A 5.0000172 5.0000172 0 0 1 13 8 A 5.0000172 5.0000172 0 0 1 8 13 A 5.0000172 5.0000172 0 0 1 3 8 A 5.0000172 5.0000172 0 0 1 8 3 z" transform="translate(0,1036.3622)"/><rect style="opacity:1;fill:#e0e0e0;fill-opacity:1;stroke:none;stroke-width:2;stroke-linecap:round;stroke-linejoin:round;stroke-miterlimit:4;stroke-dasharray:none;stroke-dashoffset:0;stroke-opacity:.99607843" id="rect4161" width="2" height="4" x="7" y="1041.362"/><rect id="rect4163" width="4" height="2" x="7" y="1043.362" style="opacity:1;fill:#e0e0e0;fill-opacity:1;stroke:none;stroke-width:2;stroke-linecap:round;stroke-linejoin:round;stroke-miterlimit:4;stroke-dasharray:none;stroke-dashoffset:0;stroke-opacity:.99607843"/></g></svg>