<svg xmlns="http://www.w3.org/2000/svg" xmlns:svg="http://www.w3.org/2000/svg" id="svg2" width="16" height="16" version="1.1" viewBox="0 0 16 16"><metadata id="metadata7"/><g id="layer1" transform="translate(0,-1036.3622)"><path style="opacity:1;fill:#e0e0e0;fill-opacity:.39215686;stroke:none;stroke-width:2;stroke-linecap:round;stroke-linejoin:round;stroke-miterlimit:4;stroke-dasharray:none;stroke-dashoffset:0;stroke-opacity:1" id="rect4697" d="m 7,1037.3622 0,2 0,4 -4,0 c 0,0 -0.446,0 -1,0 -0.554,0 -1,0 -1,0 l 0,2 0,4 c 0,0 0.446,0 1,0 0.554,0 1,0 1,0 l 0,-4 4,0 0,4 -4,0 c -2.34e-5,0 0,0.446 0,1 0,0.554 -2.34e-5,1 0,1 l 4,0 c 0,0 0.446,0 1,0 0.554,0 1,0 1,0 l 0,-2 0,-4 4,0 c 0,0 0.446,0 1,0 0.554,0 1,0 1,0 l 0,-2 0,-4 c 0,0 -0.446,0 -1,0 -0.554,0 -1,0 -1,0 l 0,4 -4,0 0,-4 4,0 c 2.3e-5,0 0,-0.446 0,-1 0,-0.554 2.3e-5,-1 0,-1 l -4,0 c 0,0 -0.446,0 -1,0 -0.554,0 -1,0 -1,0 z"/><rect style="opacity:1;fill:#e0e0e0;fill-opacity:1;stroke:none;stroke-width:2;stroke-linecap:round;stroke-linejoin:round;stroke-miterlimit:4;stroke-dasharray:none;stroke-dashoffset:0;stroke-opacity:1" id="rect4679" width="2" height="2" x="1" y="1049.362" rx="2.5" ry="0"/><rect id="rect4681" width="2" height="2" x="1" y="1043.362" rx="2.5" ry="0" style="opacity:1;fill:#e0e0e0;fill-opacity:1;stroke:none;stroke-width:2;stroke-linecap:round;stroke-linejoin:round;stroke-miterlimit:4;stroke-dasharray:none;stroke-dashoffset:0;stroke-opacity:1"/><rect style="opacity:1;fill:#e0e0e0;fill-opacity:1;stroke:none;stroke-width:2;stroke-linecap:round;stroke-linejoin:round;stroke-miterlimit:4;stroke-dasharray:none;stroke-dashoffset:0;stroke-opacity:1" id="rect4693" width="2" height="2" x="13" y="1037.362" rx="2.5" ry="0"/><rect style="opacity:1;fill:#e0e0e0;fill-opacity:1;stroke:none;stroke-width:2;stroke-linecap:round;stroke-linejoin:round;stroke-miterlimit:4;stroke-dasharray:none;stroke-dashoffset:0;stroke-opacity:1" id="rect4726" width="2" height="2" x="7" y="1049.362" rx="2.5" ry="0"/><rect style="opacity:1;fill:#e0e0e0;fill-opacity:1;stroke:none;stroke-width:2;stroke-linecap:round;stroke-linejoin:round;stroke-miterlimit:4;stroke-dasharray:none;stroke-dashoffset:0;stroke-opacity:1" id="rect4157" width="2" height="2" x="7" y="1037.362" rx="2.5" ry="0"/><rect id="rect4159" width="2" height="2" x="7" y="1043.362" rx="2.5" ry="0" style="opacity:1;fill:#e0e0e0;fill-opacity:1;stroke:none;stroke-width:2;stroke-linecap:round;stroke-linejoin:round;stroke-miterlimit:4;stroke-dasharray:none;stroke-dashoffset:0;stroke-opacity:1"/><rect id="rect4161" width="2" height="2" x="13" y="1043.362" rx="2.5" ry="0" style="opacity:1;fill:#e0e0e0;fill-opacity:1;stroke:none;stroke-width:2;stroke-linecap:round;stroke-linejoin:round;stroke-miterlimit:4;stroke-dasharray:none;stroke-dashoffset:0;stroke-opacity:1"/></g></svg>