<svg xmlns="http://www.w3.org/2000/svg" xmlns:svg="http://www.w3.org/2000/svg" xmlns:xlink="http://www.w3.org/1999/xlink" id="svg2" width="16" height="16" version="1.1" viewBox="0 0 16 16"><defs id="defs4"><linearGradient id="linearGradient4174"><stop style="stop-color:#ff5353;stop-opacity:1" id="stop4176" offset="0"/><stop id="stop4186" offset=".3" style="stop-color:#f1e17a;stop-opacity:1"/><stop id="stop4184" offset=".556" style="stop-color:#6bfcef;stop-opacity:1"/><stop style="stop-color:#9765fd;stop-opacity:1" id="stop4188" offset=".889"/><stop style="stop-color:#ff6092;stop-opacity:1" id="stop4178" offset="1"/></linearGradient><clipPath id="clipPath4253" clipPathUnits="userSpaceOnUse"><path style="fill:#fff;fill-opacity:1;stroke:none;stroke-width:4;stroke-linecap:round;stroke-linejoin:round;stroke-miterlimit:4;stroke-dasharray:none;stroke-opacity:1" id="path4255" d="m 16.458984,1024.37 a 12.000027,12.000027 0 0 0 -3.564453,0.4004 12.000027,12.000027 0 0 0 -8.4863279,14.6973 12.000027,12.000027 0 0 0 14.6972659,8.4863 12.000027,12.000027 0 0 0 8.486328,-14.6973 12.000027,12.000027 0 0 0 -11.132813,-8.8867 z M 16.25,1029.8212 a 6.5451717,6.5451717 0 0 1 6.072266,4.8476 6.5451717,6.5451717 0 0 1 -4.628907,8.0157 6.5451717,6.5451717 0 0 1 -8.0156246,-4.6289 6.5451717,6.5451717 0 0 1 4.6289066,-8.0157 6.5451717,6.5451717 0 0 1 1.943359,-0.2187 z"/></clipPath><radialGradient id="radialGradient4161" cx="7.538" cy="1041.749" r="7" fx="7.538" fy="1041.749" gradientTransform="matrix(1.2857125,1.428583,-1.4285914,1.2857189,1540.5411,-308.80327)" gradientUnits="userSpaceOnUse" xlink:href="#linearGradient4174"/><clipPath id="clipPath4199" clipPathUnits="userSpaceOnUse"><path id="path4201" d="m 16.5,1025.8622 a 11.8125,10.499999 0 0 0 -11.8125001,10.5 11.8125,10.499999 0 0 0 11.8125001,10.5 11.8125,10.499999 0 0 0 11.8125,-10.5 11.8125,10.499999 0 0 0 -11.8125,-10.5 z m -3.375,3 a 3.375,2.9999997 0 0 1 3.375,3 3.375,2.9999997 0 0 1 -3.375,3 3.375,2.9999997 0 0 1 -3.3750001,-3 3.375,2.9999997 0 0 1 3.3750001,-3 z" style="opacity:1;fill:#fff;fill-opacity:1;stroke:none;stroke-width:2;stroke-linecap:round;stroke-linejoin:miter;stroke-miterlimit:4;stroke-dasharray:none;stroke-dashoffset:0;stroke-opacity:1"/></clipPath></defs><metadata id="metadata7"/><g id="layer1" transform="translate(0,-1036.3622)"><g id="g4181" clip-path="url(#clipPath4199)" mask="none" transform="matrix(0.59259259,0,0,0.66666674,-1.7777777,353.454)"><rect id="rect4159" width="27" height="3" x="3" y="1025.862" style="fill:#ff7070;fill-opacity:1;stroke:none;stroke-width:4;stroke-linecap:round;stroke-linejoin:miter;stroke-miterlimit:4;stroke-dasharray:none;stroke-opacity:1"/><rect style="fill:#ffeb70;fill-opacity:1;stroke:none;stroke-width:4;stroke-linecap:round;stroke-linejoin:miter;stroke-miterlimit:4;stroke-dasharray:none;stroke-opacity:1" id="rect4161" width="27" height="3" x="3" y="1028.862"/><rect style="fill:#9dff70;fill-opacity:1;stroke:none;stroke-width:4;stroke-linecap:round;stroke-linejoin:miter;stroke-miterlimit:4;stroke-dasharray:none;stroke-opacity:1" id="rect4163" width="27" height="3" x="3" y="1031.862"/><rect id="rect4165" width="27" height="3" x="3" y="1034.862" style="fill:#70ffb9;fill-opacity:1;stroke:none;stroke-width:4;stroke-linecap:round;stroke-linejoin:miter;stroke-miterlimit:4;stroke-dasharray:none;stroke-opacity:1"/><rect id="rect4167" width="27" height="3" x="3" y="1037.862" style="fill:#70deff;fill-opacity:1;stroke:none;stroke-width:4;stroke-linecap:round;stroke-linejoin:miter;stroke-miterlimit:4;stroke-dasharray:none;stroke-opacity:1"/><rect style="fill:#ff70ac;fill-opacity:1;stroke:none;stroke-width:4;stroke-linecap:round;stroke-linejoin:miter;stroke-miterlimit:4;stroke-dasharray:none;stroke-opacity:1" id="rect4169" width="27" height="3" x="3" y="1043.862"/><rect style="fill:#9f70ff;fill-opacity:1;stroke:none;stroke-width:4;stroke-linecap:round;stroke-linejoin:miter;stroke-miterlimit:4;stroke-dasharray:none;stroke-opacity:1" id="rect4146" width="27" height="3" x="3" y="1040.862"/></g><path style="fill:#fff;fill-opacity:1;fill-rule:evenodd;stroke:none;stroke-width:1px;stroke-linecap:butt;stroke-linejoin:miter;stroke-opacity:1" id="path4151" d="m 29.5,1037.3622 -7,3 0,8 7,3 7,-3 0,-8 -7,-3 z"/><path style="fill:#ffff91;fill-opacity:1;fill-rule:evenodd;stroke:none;stroke-width:1px;stroke-linecap:butt;stroke-linejoin:miter;stroke-opacity:1" id="path4223" d="m 22.5,1046.3622 7,3 7,-3 -7,-3 z"/><path id="path4221" d="m 22.5,1043.3622 7,3 7,-3 -7,-3 z" style="fill:#ff91ff;fill-opacity:1;fill-rule:evenodd;stroke:none;stroke-width:1px;stroke-linecap:butt;stroke-linejoin:miter;stroke-opacity:1"/><path style="fill:#0ff;fill-opacity:1;fill-rule:evenodd;stroke:none;stroke-width:1px;stroke-linecap:butt;stroke-linejoin:miter;stroke-opacity:1" id="path4143" d="m 29.5,1045.3622 -7,-3 0,-2 7,3 z"/><path id="path4145" d="m 29.5,1045.3622 7,-3 0,-2 -7,3 z" style="fill:#00d8d8;fill-opacity:1;fill-rule:evenodd;stroke:none;stroke-width:1px;stroke-linecap:butt;stroke-linejoin:miter;stroke-opacity:1"/><path style="fill:#91ffff;fill-opacity:1;fill-rule:evenodd;stroke:none;stroke-width:1px;stroke-linecap:butt;stroke-linejoin:miter;stroke-opacity:1" id="path4149" d="m 22.5,1040.3622 7,3 7,-3 -7,-3 z"/><path style="fill:#d800d8;fill-opacity:1;fill-rule:evenodd;stroke:none;stroke-width:1px;stroke-linecap:butt;stroke-linejoin:miter;stroke-opacity:1" id="path4208" d="m 29.5,1048.3622 7,-3 0,-2 -7,3 z"/><path id="path4215" d="m 29.5,1048.3622 -7,-3 0,-2 7,3 z" style="fill:#f0f;fill-opacity:1;fill-rule:evenodd;stroke:none;stroke-width:1px;stroke-linecap:butt;stroke-linejoin:miter;stroke-opacity:1"/><path id="path4217" d="m 29.5,1051.3622 7,-3 0,-2 -7,3 z" style="fill:#d8d800;fill-opacity:1;fill-rule:evenodd;stroke:none;stroke-width:1px;stroke-linecap:butt;stroke-linejoin:miter;stroke-opacity:1"/><path style="fill:#ff0;fill-opacity:1;fill-rule:evenodd;stroke:none;stroke-width:1px;stroke-linecap:butt;stroke-linejoin:miter;stroke-opacity:1" id="path4219" d="m 29.5,1051.3622 -7,-3 0,-2 7,3 z"/><g id="layer1-5" transform="translate(18,1)"><path id="path4151-1" d="m 29.5,1037.3622 -7,3 0,8 7,3 7,-3 0,-8 -7,-3 z" style="fill:#fff;fill-opacity:1;fill-rule:evenodd;stroke:none;stroke-width:1px;stroke-linecap:butt;stroke-linejoin:miter;stroke-opacity:1"/><path id="path4149-2" d="m 22.5,1040.3622 7,3 7,-3 -7,-3 z" style="fill:#0ff;fill-opacity:1;fill-rule:evenodd;stroke:none;stroke-width:1px;stroke-linecap:butt;stroke-linejoin:miter;stroke-opacity:1"/><path id="path4143-0" d="m 29.5,1051.3622 -7,-3 0,-8 7,3 z" style="fill:#f0f;fill-opacity:1;fill-rule:evenodd;stroke:none;stroke-width:1px;stroke-linecap:butt;stroke-linejoin:miter;stroke-opacity:1"/><path style="fill:#ff0;fill-opacity:1;fill-rule:evenodd;stroke:none;stroke-width:1px;stroke-linecap:butt;stroke-linejoin:miter;stroke-opacity:1" id="path4145-0" d="m 29.5,1051.3622 7,-3 0,-8 -7,3 z"/></g><path style="opacity:1;fill:url(#radialGradient4161);fill-opacity:1;stroke:none;stroke-width:2;stroke-linecap:round;stroke-linejoin:miter;stroke-miterlimit:4;stroke-dasharray:none;stroke-dashoffset:0;stroke-opacity:1" id="path4159" d="m 64,1037.3622 a 7,7.0000001 0 0 0 -7,7 7,7.0000001 0 0 0 7,7 7,7.0000001 0 0 0 7,-7 7,7.0000001 0 0 0 -7,-7 z m -2,2 a 2,2 0 0 1 2,2 2,2 0 0 1 -2,2 2,2 0 0 1 -2,-2 2,2 0 0 1 2,-2 z"/></g></svg>