<svg xmlns="http://www.w3.org/2000/svg" xmlns:svg="http://www.w3.org/2000/svg" id="svg2" width="16" height="16" version="1.1" viewBox="0 0 16 16"><defs id="defs4"><clipPath id="clipPath4148" clipPathUnits="userSpaceOnUse"><path id="path4150" d="m 7.9288448,1039.4124 c -0.4450383,0.45 -0.7094221,1.0944 -0.7094221,1.8575 0,2.4415 -5.2956144,-0.2672 -0.5696477,4.0054 1.4914475,1.3485 4.47928,1.0052 5.970753,-0.3432 1.491472,-1.3485 1.49144,-3.5347 0,-4.8831 -1.856623,-1.6786 -3.7125978,-1.6267 -4.6916832,-0.6366 z m 4.0165442,-2.4154 4.05083,3.6624 11.477345,-10.3766 c 1.118582,-1.0113 1.118582,-2.6509 0,-3.6622 -1.118605,-1.0112 -2.932222,-1.0112 -4.050828,0 z" style="fill:#fff;fill-opacity:1;stroke:none;stroke-width:4;stroke-linecap:round;stroke-linejoin:miter;stroke-miterlimit:4;stroke-dasharray:none;stroke-opacity:1"/></clipPath></defs><metadata id="metadata7"/><g id="layer1" transform="translate(0,-1036.3622)"><g id="g4181" clip-path="url(#clipPath4148)" mask="none" transform="matrix(0.59259259,0,0,0.66666674,-1.7777777,353.454)"><rect id="rect4159" width="27" height="3" x="3" y="1025.862" style="fill:#ff7070;fill-opacity:1;stroke:none;stroke-width:4;stroke-linecap:round;stroke-linejoin:miter;stroke-miterlimit:4;stroke-dasharray:none;stroke-opacity:1"/><rect style="fill:#ffeb70;fill-opacity:1;stroke:none;stroke-width:4;stroke-linecap:round;stroke-linejoin:miter;stroke-miterlimit:4;stroke-dasharray:none;stroke-opacity:1" id="rect4161" width="27" height="3" x="3" y="1028.862"/><rect style="fill:#9dff70;fill-opacity:1;stroke:none;stroke-width:4;stroke-linecap:round;stroke-linejoin:miter;stroke-miterlimit:4;stroke-dasharray:none;stroke-opacity:1" id="rect4163" width="27" height="3" x="3" y="1031.862"/><rect id="rect4165" width="27" height="3" x="3" y="1034.862" style="fill:#70ffb9;fill-opacity:1;stroke:none;stroke-width:4;stroke-linecap:round;stroke-linejoin:miter;stroke-miterlimit:4;stroke-dasharray:none;stroke-opacity:1"/><rect id="rect4167" width="27" height="3" x="3" y="1037.862" style="fill:#70deff;fill-opacity:1;stroke:none;stroke-width:4;stroke-linecap:round;stroke-linejoin:miter;stroke-miterlimit:4;stroke-dasharray:none;stroke-opacity:1"/><rect style="fill:#ff70ac;fill-opacity:1;stroke:none;stroke-width:4;stroke-linecap:round;stroke-linejoin:miter;stroke-miterlimit:4;stroke-dasharray:none;stroke-opacity:1" id="rect4169" width="27" height="3" x="3" y="1043.862"/><rect style="fill:#9f70ff;fill-opacity:1;stroke:none;stroke-width:4;stroke-linecap:round;stroke-linejoin:miter;stroke-miterlimit:4;stroke-dasharray:none;stroke-opacity:1" id="rect4146" width="27" height="3" x="3" y="1040.862"/></g></g></svg>