<svg xmlns="http://www.w3.org/2000/svg" xmlns:svg="http://www.w3.org/2000/svg" id="svg2" width="14" height="14" version="1.1" viewBox="0 0 14 14"><metadata id="metadata7"/><g id="layer1" transform="translate(0,-1038.3622)"><path style="opacity:1;fill:#e0e0e0;fill-opacity:.99607843;stroke:none;stroke-width:3;stroke-linecap:round;stroke-linejoin:miter;stroke-miterlimit:4;stroke-dasharray:none;stroke-dashoffset:0;stroke-opacity:1" id="path4138" d="m 8,1039.3622 a 6.0000172,6.0000172 0 0 0 -6,6 l 2,0 a 4,4 0 0 1 4,-4 4,4 0 0 1 4,4 4,4 0 0 1 -4,4 l 0,2 a 6.0000172,6.0000172 0 0 0 6,-6 6.0000172,6.0000172 0 0 0 -6,-6 z"/><path style="opacity:1;fill:#e0e0e0;fill-opacity:.99607843;stroke:none;stroke-width:3;stroke-linecap:round;stroke-linejoin:miter;stroke-miterlimit:4;stroke-dasharray:none;stroke-dashoffset:0;stroke-opacity:1" id="path4142" d="m 4.1180339,1048.2987 -1.6770509,-0.9683 -1.67705101,-0.9682 1.67705101,-0.9683 1.6770511,-0.9682 -1e-7,1.9365 z" transform="matrix(0,-1.1925797,1.5491989,0,-1618.0232,1050.2732)"/></g></svg>