<svg xmlns="http://www.w3.org/2000/svg" xmlns:svg="http://www.w3.org/2000/svg" id="svg2" width="16" height="16" version="1.1" viewBox="0 0 16 16"><metadata id="metadata7"/><g id="layer1" transform="translate(0,-1036.3622)"><path style="fill:none;fill-rule:evenodd;stroke:#e0e0e0;stroke-width:2;stroke-linecap:round;stroke-linejoin:miter;stroke-opacity:1;stroke-miterlimit:4;stroke-dasharray:none" id="path4156" d="m 5,1047.3622 6,-6"/><path style="color:#000;font-style:normal;font-variant:normal;font-weight:400;font-stretch:normal;font-size:medium;line-height:normal;font-family:sans-serif;text-indent:0;text-align:start;text-decoration:none;text-decoration-line:none;text-decoration-style:solid;text-decoration-color:#000;letter-spacing:normal;word-spacing:normal;text-transform:none;direction:ltr;block-progression:tb;writing-mode:lr-tb;baseline-shift:baseline;text-anchor:start;white-space:normal;clip-rule:nonzero;display:inline;overflow:visible;visibility:visible;opacity:1;isolation:auto;mix-blend-mode:normal;color-interpolation:sRGB;color-interpolation-filters:linearRGB;solid-color:#000;solid-opacity:1;fill:#e0e0e0;fill-opacity:1;fill-rule:nonzero;stroke:none;stroke-width:2;stroke-linecap:round;stroke-linejoin:round;stroke-miterlimit:4;stroke-dasharray:none;stroke-dashoffset:0;stroke-opacity:1;color-rendering:auto;image-rendering:auto;shape-rendering:auto;text-rendering:auto;enable-background:accumulate" id="path4137" d="M 11 1 C 8.8027056 1 7 2.8027 7 5 C 7 5.3547724 7.0623287 5.6932122 7.1503906 6.0214844 L 9.5449219 3.6269531 C 9.9079388 3.2418883 10.420555 3 11 3 C 12.116414 3 13 3.8836 13 5 C 13 5.5738779 12.763331 6.0828638 12.384766 6.4453125 L 9.9804688 8.8496094 C 10.308197 8.9373587 10.64588 9 11 9 C 13.197294 9 15 7.1973 15 5 C 15 2.8027 13.197294 1 11 1 z M 5 7 C 2.8027056 7 1 8.8027 1 11 C 1 13.1973 2.8027056 15 5 15 C 7.1972944 15 9 13.1973 9 11 C 9 10.645879 8.9373589 10.308197 8.8496094 9.9804688 L 6.4453125 12.384766 C 6.0828657 12.763333 5.5738851 13 5 13 C 3.8835859 13 3 12.1164 3 11 C 3 10.420562 3.24189 9.9079407 3.6269531 9.5449219 L 6.0214844 7.1503906 C 5.6932126 7.0623289 5.3547715 7 5 7 z" transform="translate(0,1036.3622)"/></g></svg>