<svg xmlns="http://www.w3.org/2000/svg" xmlns:svg="http://www.w3.org/2000/svg" id="svg2" width="16" height="16" version="1.1" viewBox="0 0 16 16"><metadata id="metadata7"/><g id="layer1" transform="translate(0,-1036.3622)"><path style="opacity:1;fill:#e0e0e0;fill-opacity:.99607843;stroke:none;stroke-width:3;stroke-linecap:round;stroke-linejoin:miter;stroke-miterlimit:4;stroke-dasharray:none;stroke-dashoffset:0;stroke-opacity:1" id="path4137" d="M 11 4 A 4 4.0000024 0 0 0 7 8 A 4 4.0000024 0 0 0 11 12 A 4 4.0000024 0 0 0 15 8 A 4 4.0000024 0 0 0 11 4 z M 11 6 A 2.0000174 2.0000174 0 0 1 13 8 A 2.0000174 2.0000174 0 0 1 11 10 A 2.0000174 2.0000174 0 0 1 9 8 A 2.0000174 2.0000174 0 0 1 11 6 z" transform="translate(0,1036.3622)"/><rect style="opacity:1;fill:#e0e0e0;fill-opacity:.99607843;stroke:none;stroke-width:3;stroke-linecap:round;stroke-linejoin:miter;stroke-miterlimit:4;stroke-dasharray:none;stroke-dashoffset:0;stroke-opacity:1" id="rect4141" width="8" height="2" x="1" y="1043.362"/><rect id="rect4144" width="3" height="2" x="2" y="1045.362" style="opacity:1;fill:#e0e0e0;fill-opacity:.99607843;stroke:none;stroke-width:3;stroke-linecap:round;stroke-linejoin:miter;stroke-miterlimit:4;stroke-dasharray:none;stroke-dashoffset:0;stroke-opacity:1"/></g></svg>