<svg xmlns="http://www.w3.org/2000/svg" xmlns:svg="http://www.w3.org/2000/svg" id="svg2" width="16" height="16" version="1.1" viewBox="0 0 16 16"><metadata id="metadata7"/><g id="layer1" transform="translate(0,-1036.3622)"><path style="color:#000;font-style:normal;font-variant:normal;font-weight:400;font-stretch:normal;font-size:medium;line-height:normal;font-family:sans-serif;text-indent:0;text-align:start;text-decoration:none;text-decoration-line:none;text-decoration-style:solid;text-decoration-color:#000;letter-spacing:normal;word-spacing:normal;text-transform:none;direction:ltr;block-progression:tb;writing-mode:lr-tb;baseline-shift:baseline;text-anchor:start;white-space:normal;clip-rule:nonzero;display:inline;overflow:visible;visibility:visible;opacity:1;isolation:auto;mix-blend-mode:normal;color-interpolation:sRGB;color-interpolation-filters:linearRGB;solid-color:#000;solid-opacity:1;fill:#a5b7f2;fill-opacity:.98823529;fill-rule:evenodd;stroke:none;stroke-width:2;stroke-linecap:butt;stroke-linejoin:round;stroke-miterlimit:4;stroke-dasharray:none;stroke-dashoffset:0;stroke-opacity:1;color-rendering:auto;image-rendering:auto;shape-rendering:auto;text-rendering:auto;enable-background:accumulate" id="path4144" d="M 2 1 A 1.0001 1.0001 0 0 0 1 2 L 1 14 A 1.0001 1.0001 0 0 0 2 15 L 6.9023438 15 A 2.1002099 2.1002099 0 0 1 7.0332031 14.263672 L 7.5078125 13 L 3 13 L 3 3 L 11.585938 3 L 7.2929688 7.2929688 A 1.0001 1.0001 0 0 0 7.2929688 8.7070312 L 8.6191406 10.033203 L 10.033203 6.2636719 A 2.1002099 2.1002099 0 0 1 12.025391 4.9023438 A 2.1002099 2.1002099 0 0 1 12.460938 4.953125 L 14.707031 2.7070312 A 1.0001 1.0001 0 0 0 14 1 L 2 1 z" transform="translate(0,1036.3622)"/><path style="fill:#a5b7f6;fill-rule:evenodd;stroke:none;stroke-width:1px;stroke-linecap:butt;stroke-linejoin:miter;stroke-opacity:1;fill-opacity:.98823529" id="path4163" d="m 15,1051.3622 -3,-8 -3,8 3,-2 z"/></g></svg>