<svg xmlns="http://www.w3.org/2000/svg" xmlns:svg="http://www.w3.org/2000/svg" id="svg2" width="16" height="16" version="1.1" viewBox="0 0 16 16"><metadata id="metadata7"/><g id="layer1" transform="translate(0,-1036.3622)"><path style="opacity:1;fill:#fc9c9c;fill-opacity:.99607843;stroke:none;stroke-width:2;stroke-linecap:round;stroke-linejoin:round;stroke-miterlimit:4;stroke-dasharray:none;stroke-dashoffset:0;stroke-opacity:1" id="path4162" d="M 3 1 A 2 2 0 0 0 1 3 A 2 2 0 0 0 2 4.7304688 L 2 11.271484 A 2 2 0 0 0 1 13 A 2 2 0 0 0 3 15 A 2 2 0 0 0 4.7304688 14 L 7.2382812 14 L 7.9882812 12 L 4.7285156 12 A 2 2 0 0 0 4 11.269531 L 4 5.4140625 L 8.6972656 10.111328 L 9.46875 8.0546875 L 5.4140625 4 L 11.271484 4 A 2 2 0 0 0 12 4.7304688 L 12 5.0019531 A 2.0002 2.0002 0 0 1 12.023438 5.0019531 A 2.0002 2.0002 0 0 1 13.873047 6.2988281 L 14 6.6367188 L 14 4.7285156 A 2 2 0 0 0 15 3 A 2 2 0 0 0 13 1 A 2 2 0 0 0 11.269531 2 L 4.7285156 2 A 2 2 0 0 0 3 1 z" transform="translate(0,1036.3622)"/><path style="fill:#fc9c9c;fill-rule:evenodd;stroke:none;stroke-width:1px;stroke-linecap:butt;stroke-linejoin:miter;stroke-opacity:1;fill-opacity:.99607843" id="path4156" d="m 15,1051.3622 -3,-8 -3,8 3,-2 z"/><rect style="opacity:1;fill:#fc9c9c;fill-opacity:.99607843;stroke:none;stroke-width:4;stroke-linecap:round;stroke-linejoin:round;stroke-miterlimit:4;stroke-dasharray:none;stroke-dashoffset:0;stroke-opacity:1" id="rect4177" width="2" height="1" x="12" y="1040.362"/><rect id="rect4179" width="2" height="1" x="12" y="1040.362" style="opacity:1;fill:#fc9c9c;fill-opacity:.99607843;stroke:none;stroke-width:4;stroke-linecap:round;stroke-linejoin:round;stroke-miterlimit:4;stroke-dasharray:none;stroke-dashoffset:0;stroke-opacity:1"/></g></svg>