<svg xmlns="http://www.w3.org/2000/svg" xmlns:svg="http://www.w3.org/2000/svg" id="svg2" width="16" height="16" version="1.1" viewBox="0 0 16 16"><metadata id="metadata7"/><g id="layer1" transform="translate(0,-1036.3622)"><path style="opacity:1;fill:#fc9c9c;fill-opacity:.99607843;stroke:none;stroke-width:2;stroke-linecap:round;stroke-linejoin:round;stroke-miterlimit:4;stroke-dasharray:none;stroke-dashoffset:0;stroke-opacity:1" id="path4162" d="M 3 1 A 2 2 0 0 0 1 3 A 2 2 0 0 0 2 4.7304688 L 2 11.271484 A 2 2 0 0 0 1 13 A 2 2 0 0 0 3 15 A 2 2 0 0 0 4.7304688 14 L 6 14 L 6 13 L 6 12 L 4.7285156 12 A 2 2 0 0 0 4 11.269531 L 4 5.4140625 L 7.5859375 9 L 9 9 L 9 8 L 9 7.5859375 L 5.4140625 4 L 11.271484 4 A 2 2 0 0 0 12 4.7265625 L 12 6 L 14 6 L 14 4.7304688 A 2 2 0 0 0 15 3 A 2 2 0 0 0 13 1 A 2 2 0 0 0 11.269531 2 L 4.7285156 2 A 2 2 0 0 0 3 1 z M 12 8 L 12 10.585938 L 11 9.5859375 L 11 11 L 9.5859375 11 L 10.585938 12 L 8 12 L 8 13 L 9 13 L 11 13 L 11 14 L 11.271484 14 A 2 2 0 0 0 13 15 L 13 13 L 15 13 A 2 2 0 0 0 13.96875 11.25 L 14 11.25 L 14 11 L 13 11 L 13 8 L 12 8 z" transform="translate(0,1036.3622)"/><path style="opacity:1;fill:#fc9c9c;fill-opacity:.99607843;stroke:none;stroke-width:2;stroke-linecap:round;stroke-linejoin:round;stroke-miterlimit:4;stroke-dasharray:none;stroke-dashoffset:0;stroke-opacity:.99607843" id="rect4199" d="m 11,1044.3622 0,3 -3,0 0,2 3,0 0,3 2,0 0,-3 3,0 0,-2 -3,0 0,-3 -2,0 z"/></g></svg>