<svg xmlns="http://www.w3.org/2000/svg" xmlns:svg="http://www.w3.org/2000/svg" id="svg2" width="16" height="16" version="1.1" viewBox="0 0 16 16"><metadata id="metadata7"/><g id="layer1" transform="translate(0,-1036.3622)"><path style="opacity:1;fill:#e0e0e0;fill-opacity:.99607843;stroke:none;stroke-width:2;stroke-linecap:round;stroke-linejoin:round;stroke-miterlimit:4;stroke-dasharray:none;stroke-dashoffset:0;stroke-opacity:1" id="rect4155" d="M 1 4 L 1 13 A 2 2 0 0 0 3 15 L 13 15 A 2 2 0 0 0 15 13 L 15 4 L 14 4 L 14 13 A 0.9999826 0.9999826 0 0 1 13 14 L 3 14 A 1 1 0 0 1 2 13 L 2 4 L 1 4 z" transform="translate(0,1036.3622)"/><rect style="opacity:1;fill:#fff;fill-opacity:.99607843;stroke:none;stroke-width:2;stroke-linecap:round;stroke-linejoin:round;stroke-miterlimit:4;stroke-dasharray:none;stroke-dashoffset:0;stroke-opacity:1" id="rect4194" width="7" height="14" x="27" y="1038.362"/><path style="opacity:1;fill:#e0e0e0;fill-opacity:.99607843;stroke:none;stroke-width:2;stroke-linecap:round;stroke-linejoin:round;stroke-miterlimit:4;stroke-dasharray:none;stroke-dashoffset:0;stroke-opacity:1" id="rect4163" d="M 4 2 A 1 1 0 0 0 3 3 L 3 12.083984 A 1 0.91666667 0 0 0 4 13 L 12 13 A 1 0.91666667 0 0 0 13 12.083984 L 13 3 A 1 1 0 0 0 12 2 L 4 2 z M 5 4 L 7 4 L 7 7 L 9 4 L 11 4 L 9 7 L 11 11 L 9 11 L 7 7 L 7 11 L 5 11 L 5 4 z" transform="translate(0,1036.3622)"/></g></svg>