<svg xmlns="http://www.w3.org/2000/svg" xmlns:svg="http://www.w3.org/2000/svg" id="svg2" width="16" height="16" version="1.1" viewBox="0 0 16 16"><metadata id="metadata7"/><g id="layer1" transform="translate(0,-1036.3622)"><path style="opacity:1;fill:#a5efac;fill-opacity:1;stroke:none;stroke-width:2;stroke-linecap:round;stroke-linejoin:miter;stroke-miterlimit:4;stroke-dasharray:none;stroke-dashoffset:0;stroke-opacity:1" id="rect4140" d="m 15,1039.3622 c 0,-1.1046 -0.89543,-2 -2,-2 l -10,0 c -1.104569,0 -2,0.8954 -2,2 l 0,10 c 0,1.1046 0.895431,2 2,2 l 10,0 c 1.10457,0 2,-0.8954 2,-2 l 0,-10 z m -2,0 0,2 -10,0 0,-2 10,0 z m 0,4 0,2 -10,0 0,-2 10,0 z m 0,4 0,2 -10,0 0,-2 10,0 z"/></g></svg>