<svg xmlns="http://www.w3.org/2000/svg" xmlns:svg="http://www.w3.org/2000/svg" id="svg2" width="16" height="16" version="1.1" viewBox="0 0 16 16"><metadata id="metadata7"/><g id="layer1" transform="translate(0,-1036.3622)"><rect style="opacity:1;fill:#a5efac;fill-opacity:1;stroke:none;stroke-width:4;stroke-linecap:butt;stroke-linejoin:round;stroke-miterlimit:4;stroke-dasharray:none;stroke-dashoffset:0;stroke-opacity:1" id="rect4156" width="1" height="5" x="1" y="1042.362"/><rect id="rect4159" width="1" height="6" x="1041.362" y="-8" transform="matrix(0,1,-1,0,0,0)" style="opacity:1;fill:#a5efac;fill-opacity:1;stroke:none;stroke-width:4;stroke-linecap:butt;stroke-linejoin:round;stroke-miterlimit:4;stroke-dasharray:none;stroke-dashoffset:0;stroke-opacity:1"/><rect id="rect4161" width="1" height="5" x="8" y="1042.362" style="opacity:1;fill:#a5efac;fill-opacity:1;stroke:none;stroke-width:4;stroke-linecap:butt;stroke-linejoin:round;stroke-miterlimit:4;stroke-dasharray:none;stroke-dashoffset:0;stroke-opacity:1"/><path style="opacity:1;fill:#a5efac;fill-opacity:1;stroke:none;stroke-width:4;stroke-linecap:butt;stroke-linejoin:round;stroke-miterlimit:4;stroke-dasharray:none;stroke-dashoffset:0;stroke-opacity:1" id="path4163" d="m 2,1043.3622 a 1,1 0 0 1 -0.9238795,-0.6173 1,1 0 0 1 0.2167727,-1.0898 1,1 0 0 1 1.0897902,-0.2168 A 1,1 0 0 1 3,1042.3622 l -1,0 z"/><path id="path4165" d="m -8,1043.3622 a 1,1 0 0 1 -0.9238795,-0.6173 1,1 0 0 1 0.2167727,-1.0898 1,1 0 0 1 1.0897902,-0.2168 A 1,1 0 0 1 -7,1042.3622 l -1,0 z" transform="scale(-1,1)" style="opacity:1;fill:#a5efac;fill-opacity:1;stroke:none;stroke-width:4;stroke-linecap:butt;stroke-linejoin:round;stroke-miterlimit:4;stroke-dasharray:none;stroke-dashoffset:0;stroke-opacity:1"/><rect style="opacity:1;fill:#a5efac;fill-opacity:1;stroke:none;stroke-width:4;stroke-linecap:butt;stroke-linejoin:round;stroke-miterlimit:4;stroke-dasharray:none;stroke-dashoffset:0;stroke-opacity:1" id="rect4167" width="1" height="5" x="14" y="1042.362"/><rect style="opacity:1;fill:#a5efac;fill-opacity:1;stroke:none;stroke-width:4;stroke-linecap:butt;stroke-linejoin:round;stroke-miterlimit:4;stroke-dasharray:none;stroke-dashoffset:0;stroke-opacity:1" id="rect4169" width="1" height="6" x="1041.362" y="-14" transform="matrix(0,1,-1,0,0,0)"/><path style="opacity:1;fill:#a5efac;fill-opacity:1;stroke:none;stroke-width:4;stroke-linecap:butt;stroke-linejoin:round;stroke-miterlimit:4;stroke-dasharray:none;stroke-dashoffset:0;stroke-opacity:1" id="path4171" d="m -14,1043.3622 a 1,1 0 0 1 -0.92388,-0.6173 1,1 0 0 1 0.216773,-1.0898 1,1 0 0 1 1.08979,-0.2168 1,1 0 0 1 0.617317,0.9239 l -1,0 z" transform="scale(-1,1)"/><rect style="opacity:1;fill:#a5efac;fill-opacity:1;stroke:none;stroke-width:4;stroke-linecap:butt;stroke-linejoin:round;stroke-miterlimit:4;stroke-dasharray:none;stroke-dashoffset:0;stroke-opacity:1" id="rect4173" width="1" height="13" x="1046.362" y="-15" transform="matrix(0,1,-1,0,0,0)"/></g></svg>