<svg xmlns="http://www.w3.org/2000/svg" xmlns:svg="http://www.w3.org/2000/svg" id="svg2" width="16" height="16" version="1.1" viewBox="0 0 16 16"><metadata id="metadata7"/><g id="layer1" transform="translate(0,-1036.3622)"><path style="opacity:1;fill:#fc9c9c;fill-opacity:1;stroke:none;stroke-width:0;stroke-linecap:round;stroke-linejoin:round;stroke-miterlimit:4;stroke-dasharray:none;stroke-dashoffset:0;stroke-opacity:1" id="path4145" d="m 4,1045.3622 a 3,2.9999826 0 0 0 -3,3 3,2.9999826 0 0 0 3,3 3,2.9999826 0 0 0 3,-3 3,2.9999826 0 0 0 -3,-3 z m 0,2 a 1.0000231,1.0000174 0 0 1 1,1 1.0000231,1.0000174 0 0 1 -1,1 1.0000231,1.0000174 0 0 1 -1,-1 1.0000231,1.0000174 0 0 1 1,-1 z"/><path style="color:#000;font-style:normal;font-variant:normal;font-weight:400;font-stretch:normal;font-size:medium;line-height:normal;font-family:sans-serif;text-indent:0;text-align:start;text-decoration:none;text-decoration-line:none;text-decoration-style:solid;text-decoration-color:#000;letter-spacing:normal;word-spacing:normal;text-transform:none;direction:ltr;block-progression:tb;writing-mode:lr-tb;baseline-shift:baseline;text-anchor:start;white-space:normal;clip-rule:nonzero;display:inline;overflow:visible;visibility:visible;opacity:1;isolation:auto;mix-blend-mode:normal;color-interpolation:sRGB;color-interpolation-filters:linearRGB;solid-color:#000;solid-opacity:1;fill:#fc9c9c;fill-opacity:1;fill-rule:evenodd;stroke:none;stroke-width:2;stroke-linecap:round;stroke-linejoin:miter;stroke-miterlimit:4;stroke-dasharray:none;stroke-dashoffset:0;stroke-opacity:1;color-rendering:auto;image-rendering:auto;shape-rendering:auto;text-rendering:auto;enable-background:accumulate" id="path4147" d="M 7.2832031 1.328125 A 1.0001 1.0001 0 0 0 6.4023438 1.8398438 L 2.7128906 8.2304688 C 3.1188799 8.0916963 3.5469997 8 4 8 C 4.3704308 8 4.722062 8.0678727 5.0625 8.1621094 L 8.1347656 2.8398438 A 1.0001 1.0001 0 0 0 7.2832031 1.328125 z" transform="translate(0,1036.3622)"/><path style="fill:none;fill-rule:evenodd;stroke:#fc9c9c;stroke-width:2;stroke-linecap:round;stroke-linejoin:miter;stroke-miterlimit:4;stroke-dasharray:none;stroke-opacity:1" id="path4149" d="m 4,1050.3622 10,0"/></g></svg>