<svg xmlns="http://www.w3.org/2000/svg" xmlns:svg="http://www.w3.org/2000/svg" id="svg2" width="16" height="16" version="1.1" viewBox="0 0 16 16"><metadata id="metadata7"/><g id="layer1" transform="translate(0,-1036.3622)"><path style="fill:#fff;fill-opacity:.70588237;stroke:none;stroke-width:3;stroke-linecap:round;stroke-linejoin:miter;stroke-miterlimit:4;stroke-dasharray:none;stroke-opacity:1" id="rect4170" d="M 6 0 L 6 6 L 0 6 L 0 10 L 6 10 L 6 16 L 10 16 L 10 10 L 16 10 L 16 6 L 10 6 L 10 0 L 6 0 z M 7 7 L 9 7 L 9 9 L 7 9 L 7 7 z" transform="translate(0,1036.3622)"/><path style="fill:#ff8484;fill-opacity:.58823532;stroke:none;stroke-width:3;stroke-linecap:round;stroke-linejoin:miter;stroke-miterlimit:4;stroke-dasharray:none;stroke-opacity:1" id="rect4137" d="M 7 1 L 7 6 L 9 6 L 9 1 L 7 1 z M 1 7 L 1 9 L 6 9 L 6 7 L 1 7 z M 10 7 L 10 9 L 15 9 L 15 7 L 10 7 z M 7 10 L 7 15 L 9 15 L 9 10 L 7 10 z" transform="translate(0,1036.3622)"/></g></svg>