<svg xmlns="http://www.w3.org/2000/svg" xmlns:svg="http://www.w3.org/2000/svg" id="svg2" width="16" height="16" version="1.1" viewBox="0 0 16 16"><metadata id="metadata7"/><g id="layer1" transform="translate(0,-1036.3622)"><path style="opacity:1;fill:#fc9c9c;fill-opacity:.99607843;stroke:none;stroke-width:2;stroke-linecap:round;stroke-linejoin:round;stroke-miterlimit:4;stroke-dasharray:none;stroke-dashoffset:0;stroke-opacity:1" id="path4154" d="M 8 1 A 5 7 0 0 0 3 8 A 5 7 0 0 0 8 15 A 5 7 0 0 0 13 8 A 5 7 0 0 0 8 1 z M 8 3 A 2.9999998 5.0000172 0 0 1 11 8 A 2.9999998 5.0000172 0 0 1 8 13 A 2.9999998 5.0000172 0 0 1 5 8 A 2.9999998 5.0000172 0 0 1 8 3 z" transform="translate(0,1036.3622)"/></g></svg>