<svg xmlns="http://www.w3.org/2000/svg" xmlns:svg="http://www.w3.org/2000/svg" id="svg2" width="14" height="14" version="1.1" viewBox="0 0 14 14"><metadata id="metadata7"/><g id="layer1" transform="translate(0,-1038.3622)"><path style="opacity:1;fill:#cf68ea;fill-opacity:1;stroke:none;stroke-width:2;stroke-linecap:round;stroke-linejoin:round;stroke-miterlimit:4;stroke-dasharray:none;stroke-dashoffset:0;stroke-opacity:1" id="rect4147" d="M 2 0 A 2 2 0 0 0 0 2 L 0 12 A 2 2 0 0 0 2 14 L 12 14 A 2 2 0 0 0 14 12 L 14 2 A 2 2 0 0 0 12 0 L 2 0 z M 6 2 L 11 2 L 11 4 L 6 4 A 1.0000174 1.0000174 0 0 0 5 5 A 1.0000174 1.0000174 0 0 0 6 6 L 8 6 C 9.6568542 6 11 7.3431 11 9 C 11 10.6569 9.6568542 12 8 12 L 3 12 L 3 10 L 8 10 A 1.0000174 1.0000174 0 0 0 9 9 A 1.0000174 1.0000174 0 0 0 8 8 L 6 8 C 4.3431458 8 3 6.6569 3 5 C 3 3.3431 4.3431458 2 6 2 z" transform="translate(0,1038.3622)"/></g></svg>