<svg xmlns="http://www.w3.org/2000/svg" xmlns:svg="http://www.w3.org/2000/svg" id="svg2" width="16" height="16" version="1.1" viewBox="0 0 16 16"><metadata id="metadata7"/><g id="layer1" transform="translate(0,-1036.3622)"><g id="layer1-4"><path id="rect4139" d="M 13.050781,0.97851562 A 2,2 0 0 0 11.607422,1.5644531 L 10.193359,2.9785156 8.7773438,1.5644531 7.3632812,2.9785156 8.7773438,4.3925781 1.7070312,11.464844 1.3535156,13.232422 1,15 2.7675781,14.646484 4.5351562,14.292969 11.607422,7.2226562 13.021484,8.6367188 14.435547,7.2226562 13.021484,5.8066406 14.435547,4.3925781 a 2,2 0 0 0 0,-2.828125 2,2 0 0 0 -1.384766,-0.58593748 z M 9.484375,5.0996094 10.900391,6.515625 3.828125,13.585938 3.1210938,12.878906 2.4140625,12.171875 9.484375,5.0996094 Z" transform="translate(0,1036.3622)" style="opacity:1;fill:#a5efac;fill-opacity:1;stroke:none;stroke-width:2;stroke-linecap:round;stroke-linejoin:round;stroke-miterlimit:4;stroke-dasharray:none;stroke-dashoffset:0;stroke-opacity:.99607843"/></g><path style="opacity:1;fill:#a5efac;fill-opacity:1;stroke:none;stroke-width:2;stroke-linecap:round;stroke-linejoin:miter;stroke-miterlimit:4;stroke-dasharray:none;stroke-dashoffset:0;stroke-opacity:1" id="rect4139-4" d="M 1 3 L 1 9.34375 L 5.9492188 4.3925781 L 4.5566406 3 L 1 3 z M 15 9.4863281 L 13.486328 11 L 12.556641 11 L 11.607422 10.050781 L 8.6582031 13 L 15 13 L 15 9.4863281 z" transform="translate(0,1036.3622)"/><path style="opacity:1;fill:#000;fill-opacity:.07843137;stroke:none;stroke-width:2;stroke-linecap:round;stroke-linejoin:miter;stroke-miterlimit:4;stroke-dasharray:none;stroke-dashoffset:0;stroke-opacity:1" id="rect4142" d="M 10.658203 11 L 8.6582031 13 L 15 13 L 15 11 L 13.486328 11 L 12.556641 11 L 10.658203 11 z" transform="translate(0,1036.3622)"/></g></svg>