<svg xmlns="http://www.w3.org/2000/svg" xmlns:svg="http://www.w3.org/2000/svg" id="svg2" width="16" height="16" version="1.1" viewBox="0 0 16 16"><metadata id="metadata7"/><g id="layer1" transform="translate(0,-1036.3622)"><path style="opacity:1;fill:#a5b7f5;fill-opacity:.98823529;stroke:none;stroke-width:2;stroke-linecap:round;stroke-linejoin:round;stroke-miterlimit:4;stroke-dasharray:none;stroke-dashoffset:0;stroke-opacity:1" id="path4155" d="M 8 1 A 5 5 0 0 0 3 6 A 5 5 0 0 0 6 10.576172 L 6 13 L 10 13 L 10 10.580078 A 5 5 0 0 0 13 6 A 5 5 0 0 0 8 1 z M 8 3 A 3 3 0 0 1 11 6 A 3 3 0 0 1 8 9 A 3 3 0 0 1 5 6 A 3 3 0 0 1 8 3 z M 7 14 L 7 15 L 9 15 L 9 14 L 7 14 z" transform="translate(0,1036.3622)"/></g></svg>