<svg xmlns="http://www.w3.org/2000/svg" xmlns:svg="http://www.w3.org/2000/svg" id="svg2" width="16" height="16" version="1.1" viewBox="0 0 16 16"><metadata id="metadata7"/><g id="layer1" transform="translate(0,-1036.3622)"><rect style="opacity:1;fill:#a5b7f4;fill-opacity:.98823529;stroke:none;stroke-width:2;stroke-linecap:round;stroke-linejoin:round;stroke-miterlimit:4;stroke-dasharray:none;stroke-dashoffset:0;stroke-opacity:1" id="rect4154" width="2" height="10" x="5" y="1039.362"/><rect id="rect4156" width="2" height="10" x="9" y="1039.362" style="opacity:1;fill:#a5b7f4;fill-opacity:.98823529;stroke:none;stroke-width:2;stroke-linecap:round;stroke-linejoin:round;stroke-miterlimit:4;stroke-dasharray:none;stroke-dashoffset:0;stroke-opacity:1"/><rect style="opacity:1;fill:#a5b7f4;fill-opacity:.98823529;stroke:none;stroke-width:2;stroke-linecap:round;stroke-linejoin:round;stroke-miterlimit:4;stroke-dasharray:none;stroke-dashoffset:0;stroke-opacity:1" id="rect4158" width="2" height="10" x="1041.362" y="-13" transform="matrix(0,1,-1,0,0,0)"/><rect id="rect4160" width="2" height="10" x="1045.362" y="-13" transform="matrix(0,1,-1,0,0,0)" style="opacity:1;fill:#a5b7f4;fill-opacity:.98823529;stroke:none;stroke-width:2;stroke-linecap:round;stroke-linejoin:round;stroke-miterlimit:4;stroke-dasharray:none;stroke-dashoffset:0;stroke-opacity:1"/><rect id="rect4162" width="2" height="14" x="1037.362" y="-15" transform="matrix(0,1,-1,0,0,0)" style="opacity:1;fill:#a5b7f4;fill-opacity:.98823529;stroke:none;stroke-width:2;stroke-linecap:round;stroke-linejoin:round;stroke-miterlimit:4;stroke-dasharray:none;stroke-dashoffset:0;stroke-opacity:1"/><rect style="opacity:1;fill:#a5b7f4;fill-opacity:.98823529;stroke:none;stroke-width:2;stroke-linecap:round;stroke-linejoin:round;stroke-miterlimit:4;stroke-dasharray:none;stroke-dashoffset:0;stroke-opacity:1" id="rect4164" width="2" height="14" x="1049.362" y="-15" transform="matrix(0,1,-1,0,0,0)"/><rect id="rect4166" width="2" height="14" x="-15" y="-1051.362" transform="scale(-1,-1)" style="opacity:1;fill:#a5b7f4;fill-opacity:.98823529;stroke:none;stroke-width:2;stroke-linecap:round;stroke-linejoin:round;stroke-miterlimit:4;stroke-dasharray:none;stroke-dashoffset:0;stroke-opacity:1"/><rect style="opacity:1;fill:#a5b7f4;fill-opacity:.98823529;stroke:none;stroke-width:2;stroke-linecap:round;stroke-linejoin:round;stroke-miterlimit:4;stroke-dasharray:none;stroke-dashoffset:0;stroke-opacity:1" id="rect4168" width="2" height="14" x="-3" y="-1051.362" transform="scale(-1,-1)"/></g></svg>