<svg xmlns="http://www.w3.org/2000/svg" xmlns:svg="http://www.w3.org/2000/svg" id="svg2" width="16" height="16" version="1.1" viewBox="0 0 16 16"><metadata id="metadata7"/><g id="layer1" transform="translate(0,-1036.3622)"><path style="opacity:1;fill:#fc9c9c;fill-opacity:.99607843;stroke:none;stroke-width:3;stroke-linecap:round;stroke-linejoin:round;stroke-miterlimit:4;stroke-dasharray:none;stroke-dashoffset:0;stroke-opacity:1" id="path4139" d="M 8 1 A 7 7 0 0 0 1 8 A 7 7 0 0 0 8 15 A 7 7 0 0 0 15 8 A 7 7 0 0 0 8 1 z M 4 6 A 1 1 0 0 1 5 7 A 1 1 0 0 1 4 8 A 1 1 0 0 1 3 7 A 1 1 0 0 1 4 6 z M 12 6 A 1 1 0 0 1 13 7 A 1 1 0 0 1 12 8 A 1 1 0 0 1 11 7 A 1 1 0 0 1 12 6 z M 5 9 L 11 9 A 3 3 0 0 1 9.5 11.597656 A 3 3 0 0 1 6.5 11.597656 A 3 3 0 0 1 5 9 z" transform="translate(0,1036.3622)"/></g></svg>