<svg xmlns="http://www.w3.org/2000/svg" xmlns:svg="http://www.w3.org/2000/svg" id="svg2" width="16" height="16" version="1.1" viewBox="0 0 16 16"><metadata id="metadata7"/><g id="layer1" transform="translate(0,-1036.3622)"><path style="opacity:1;fill:#e0e0e0;fill-opacity:.19607843;stroke:none;stroke-width:3;stroke-linecap:round;stroke-linejoin:round;stroke-miterlimit:4;stroke-dasharray:none;stroke-dashoffset:0;stroke-opacity:1" id="path4179" d="m 9,1037.4403 0,3.0547 a 4,4 0 0 1 1.027344,0.4258 l 2.158203,-2.1582 A 7,7 0 0 0 9,1037.4403 Z"/><path style="opacity:1;fill:#e0e0e0;fill-opacity:.19607843;stroke:none;stroke-width:3;stroke-linecap:round;stroke-linejoin:round;stroke-miterlimit:4;stroke-dasharray:none;stroke-dashoffset:0;stroke-opacity:1" id="path4177" d="m 7,1037.4423 a 7,7 0 0 0 -3.1855469,1.3203 l 2.1582031,2.1582 A 4,4 0 0 1 7,1040.4931 l 0,-3.0508 z"/><path style="opacity:1;fill:#e0e0e0;fill-opacity:.19607843;stroke:none;stroke-width:3;stroke-linecap:round;stroke-linejoin:round;stroke-miterlimit:4;stroke-dasharray:none;stroke-dashoffset:0;stroke-opacity:1" id="path4175" d="m 2.4003906,1040.1767 a 7,7 0 0 0 -1.3222656,3.1855 l 3.0546875,0 a 4,4 0 0 1 0.4257813,-1.0273 l -2.1582032,-2.1582 z"/><path style="opacity:1;fill:#e0e0e0;fill-opacity:.19607843;stroke:none;stroke-width:3;stroke-linecap:round;stroke-linejoin:round;stroke-miterlimit:4;stroke-dasharray:none;stroke-dashoffset:0;stroke-opacity:1" id="path4173" d="m 13.599609,1040.1767 -2.158203,2.1582 a 4,4 0 0 1 0.427735,1.0273 l 3.050781,0 a 7,7 0 0 0 -1.320313,-3.1855 z"/><path style="opacity:1;fill:#e0e0e0;fill-opacity:.99607843;stroke:none;stroke-width:3;stroke-linecap:round;stroke-linejoin:round;stroke-miterlimit:4;stroke-dasharray:none;stroke-dashoffset:0;stroke-opacity:1" id="path4171" d="m 1.0800781,1045.3622 a 7,7 0 0 0 1.3203125,3.1855 l 2.1582032,-2.1582 a 4,4 0 0 1 -0.4277344,-1.0273 l -3.0507813,0 z"/><path style="opacity:1;fill:#e0e0e0;fill-opacity:.19607843;stroke:none;stroke-width:3;stroke-linecap:round;stroke-linejoin:round;stroke-miterlimit:4;stroke-dasharray:none;stroke-dashoffset:0;stroke-opacity:1" id="path4169" d="m 11.867188,1045.3622 a 4,4 0 0 1 -0.425782,1.0273 l 2.158203,2.1582 a 7,7 0 0 0 1.322266,-3.1855 l -3.054687,0 z"/><path style="opacity:1;fill:#e0e0e0;fill-opacity:.19607843;stroke:none;stroke-width:3;stroke-linecap:round;stroke-linejoin:round;stroke-miterlimit:4;stroke-dasharray:none;stroke-dashoffset:0;stroke-opacity:1" id="path4167" d="m 5.9726562,1047.8036 -2.1582031,2.1582 A 7,7 0 0 0 7,1051.2841 l 0,-3.0547 a 4,4 0 0 1 -1.0273438,-0.4258 z"/><path style="opacity:1;fill:#e0e0e0;fill-opacity:.19607843;stroke:none;stroke-width:3;stroke-linecap:round;stroke-linejoin:round;stroke-miterlimit:4;stroke-dasharray:none;stroke-dashoffset:0;stroke-opacity:1" id="path4142" d="M 10.027344,1047.8036 A 4,4 0 0 1 9,1048.2313 l 0,3.0508 a 7,7 0 0 0 3.185547,-1.3203 l -2.158203,-2.1582 z"/></g></svg>