<svg xmlns="http://www.w3.org/2000/svg" xmlns:svg="http://www.w3.org/2000/svg" id="svg2" width="16" height="16" version="1.1" viewBox="0 0 16 16"><metadata id="metadata7"/><g id="layer1" transform="translate(0,-1036.3622)"><ellipse style="opacity:1;fill:#6e6e6e;fill-opacity:1;stroke:none;stroke-width:2;stroke-linecap:round;stroke-linejoin:miter;stroke-miterlimit:4;stroke-dasharray:none;stroke-dashoffset:0;stroke-opacity:1" id="ellipse4152" cx="3" cy="1039.362" r="2"/><path style="fill:#a5b7f8;fill-opacity:.98823529;fill-rule:evenodd;stroke:none;stroke-width:1px;stroke-linecap:butt;stroke-linejoin:miter;stroke-opacity:1" id="path4250" d="m 7,1041.3622 -3,3 3,3 z"/><path id="path4252" d="m 9,1041.3622 3,3 -3,3 z" style="fill:#a5b7f8;fill-opacity:.98823529;fill-rule:evenodd;stroke:none;stroke-width:1px;stroke-linecap:butt;stroke-linejoin:miter;stroke-opacity:1"/><path style="opacity:1;fill:#a5b7f8;fill-opacity:.98823529;stroke:none;stroke-width:2;stroke-linecap:butt;stroke-linejoin:round;stroke-miterlimit:4;stroke-dasharray:none;stroke-dashoffset:0;stroke-opacity:1" id="path4160" d="M 3,1 C 1.8954305,1 1,1.8954305 1,3 l 0,10 c 0,1.104569 0.8954305,2 2,2 l 10,0 c 1.104569,0 2,-0.895431 2,-2 L 15,3 C 15,1.8954305 14.104569,1 13,1 Z m 0,1 10,0 c 0.552281,9.6e-6 0.99999,0.4477192 1,1 l 0,10 c -10e-6,0.552281 -0.447719,0.99999 -1,1 L 3,14 C 2.4477192,13.99999 2.0000096,13.552281 2,13 L 2,3 c 9.6e-6,-0.5522808 0.4477192,-0.9999904 1,-1 z" transform="translate(0,1036.3622)"/></g></svg>