<svg xmlns="http://www.w3.org/2000/svg" xmlns:svg="http://www.w3.org/2000/svg" id="svg2" width="14" height="14" version="1.1" viewBox="0 0 14 14"><metadata id="metadata7"/><g id="layer1" transform="translate(0,-1038.3622)"><path style="opacity:1;fill:#fff;fill-opacity:1;stroke:none;stroke-width:2;stroke-linecap:round;stroke-linejoin:round;stroke-miterlimit:4;stroke-dasharray:none;stroke-dashoffset:0;stroke-opacity:1" id="rect4147" d="m 2,1038.3622 c -1.10457,0 -2,0.8954 -2,2 l 0,10 c 0,1.1046 0.89543,2 2,2 l 10,0 c 1.104569,0 2,-0.8954 2,-2 l 0,-10 c 0,-1.1046 -0.895431,-2 -2,-2 z"/><path style="opacity:1;fill:#fff;fill-opacity:.39215687;stroke:none;stroke-width:4;stroke-linecap:round;stroke-linejoin:round;stroke-miterlimit:4;stroke-dasharray:none;stroke-dashoffset:0;stroke-opacity:1" id="circle4268" d="M 7 2 A 3 3 0 0 0 4 5 A 3 3 0 0 0 4.2109375 6.1054688 A 3 3 0 0 0 2 9 A 3 3 0 0 0 5 12 A 3 3 0 0 0 7 11.232422 A 3 3 0 0 0 9 12 A 3 3 0 0 0 12 9 A 3 3 0 0 0 9.7851562 6.109375 A 3 3 0 0 0 10 5 A 3 3 0 0 0 7 2 z" transform="translate(0,1038.3622)"/><circle style="opacity:1;fill:red;fill-opacity:.39215687;stroke:none;stroke-width:4;stroke-linecap:round;stroke-linejoin:round;stroke-miterlimit:4;stroke-dasharray:none;stroke-dashoffset:0;stroke-opacity:1" id="path4262" cx="7" cy="1043.362" r="3"/><circle id="circle4264" cx="5" cy="1047.362" r="3" style="opacity:1;fill:#00f;fill-opacity:.39215687;stroke:none;stroke-width:4;stroke-linecap:round;stroke-linejoin:round;stroke-miterlimit:4;stroke-dasharray:none;stroke-dashoffset:0;stroke-opacity:1"/><circle style="opacity:1;fill:#0f0;fill-opacity:.39215687;stroke:none;stroke-width:4;stroke-linecap:round;stroke-linejoin:round;stroke-miterlimit:4;stroke-dasharray:none;stroke-dashoffset:0;stroke-opacity:1" id="circle4266" cx="9" cy="1047.362" r="3"/><circle id="circle4281" cx="7" cy="1043.362" r="3" style="opacity:1;fill:red;fill-opacity:.39215687;stroke:none;stroke-width:4;stroke-linecap:round;stroke-linejoin:round;stroke-miterlimit:4;stroke-dasharray:none;stroke-dashoffset:0;stroke-opacity:1"/><circle style="opacity:1;fill:#00f;fill-opacity:.39215687;stroke:none;stroke-width:4;stroke-linecap:round;stroke-linejoin:round;stroke-miterlimit:4;stroke-dasharray:none;stroke-dashoffset:0;stroke-opacity:1" id="circle4283" cx="5" cy="1047.362" r="3"/><circle id="circle4285" cx="9" cy="1047.362" r="3" style="opacity:1;fill:#0f0;fill-opacity:.39215687;stroke:none;stroke-width:4;stroke-linecap:round;stroke-linejoin:round;stroke-miterlimit:4;stroke-dasharray:none;stroke-dashoffset:0;stroke-opacity:1"/></g></svg>