<svg xmlns="http://www.w3.org/2000/svg" xmlns:svg="http://www.w3.org/2000/svg" id="svg2" width="16" height="16" version="1.1" viewBox="0 0 16 16"><metadata id="metadata7"/><g id="layer1" transform="translate(0,-1036.3622)"><path style="opacity:1;fill:#a5efac;fill-opacity:1;stroke:none;stroke-width:2;stroke-linecap:round;stroke-linejoin:round;stroke-miterlimit:4;stroke-dasharray:none;stroke-dashoffset:0;stroke-opacity:.99607843" id="rect4139" d="M 13.050781 0.97851562 A 2 2 0 0 0 11.607422 1.5644531 L 10.193359 2.9785156 L 8.7773438 1.5644531 L 7.3632812 2.9785156 L 8.7773438 4.3925781 L 1.7070312 11.464844 L 1.3535156 13.232422 L 1 15 L 2.7675781 14.646484 L 4.5351562 14.292969 L 11.607422 7.2226562 L 13.021484 8.6367188 L 14.435547 7.2226562 L 13.021484 5.8066406 L 14.435547 4.3925781 A 2 2 0 0 0 14.435547 1.5644531 A 2 2 0 0 0 13.050781 0.97851562 z M 9.484375 5.0996094 L 10.900391 6.515625 L 3.828125 13.585938 L 3.1210938 12.878906 L 2.4140625 12.171875 L 9.484375 5.0996094 z" transform="translate(0,1036.3622)"/></g></svg>