<svg xmlns="http://www.w3.org/2000/svg" xmlns:svg="http://www.w3.org/2000/svg" id="svg2" width="14" height="14" version="1.1" viewBox="0 0 14 14"><metadata id="metadata7"/><g id="layer1" transform="translate(0,-1038.3622)"><path style="opacity:1;fill:#fff;fill-opacity:.39215686;stroke:none;stroke-width:4;stroke-linecap:round;stroke-linejoin:round;stroke-miterlimit:4;stroke-dasharray:none;stroke-dashoffset:0;stroke-opacity:1" id="circle4161" d="m 7,1039.3622 a 4.0000172,4.0000172 0 0 0 -4,4 4.0000172,4.0000172 0 0 0 0.03906,0.5195 4.0000172,4.0000172 0 0 0 -2.039062,3.4805 4.0000172,4.0000172 0 0 0 4,4 4.0000172,4.0000172 0 0 0 1.998047,-0.541 4.0000172,4.0000172 0 0 0 2.001953,0.541 4.0000172,4.0000172 0 0 0 4,-4 4.0000172,4.0000172 0 0 0 -2.037109,-3.4824 4.0000172,4.0000172 0 0 0 0.03711,-0.5176 4.0000172,4.0000172 0 0 0 -4,-4 z"/><path style="opacity:1;fill:#fff;fill-opacity:.39215686;stroke:none;stroke-width:4;stroke-linecap:round;stroke-linejoin:round;stroke-miterlimit:4;stroke-dasharray:none;stroke-dashoffset:0;stroke-opacity:1" id="circle4268" d="m 7,1040.3622 a 3,3 0 0 0 -3,3 3,3 0 0 0 0.210937,1.1055 A 3,3 0 0 0 2,1047.3622 a 3,3 0 0 0 3,3 3,3 0 0 0 2,-0.7676 3,3 0 0 0 2,0.7676 3,3 0 0 0 3,-3 3,3 0 0 0 -2.2148438,-2.8906 A 3,3 0 0 0 10,1043.3622 a 3,3 0 0 0 -3,-3 z"/><circle style="opacity:1;fill:red;fill-opacity:.39215686;stroke:none;stroke-width:4;stroke-linecap:round;stroke-linejoin:round;stroke-miterlimit:4;stroke-dasharray:none;stroke-dashoffset:0;stroke-opacity:1" id="path4262" cx="7" cy="1043.362" r="3"/><circle id="circle4264" cx="5" cy="1047.362" r="3" style="opacity:1;fill:#00f;fill-opacity:.39215686;stroke:none;stroke-width:4;stroke-linecap:round;stroke-linejoin:round;stroke-miterlimit:4;stroke-dasharray:none;stroke-dashoffset:0;stroke-opacity:1"/><circle style="opacity:1;fill:#0f0;fill-opacity:.39215686;stroke:none;stroke-width:4;stroke-linecap:round;stroke-linejoin:round;stroke-miterlimit:4;stroke-dasharray:none;stroke-dashoffset:0;stroke-opacity:1" id="circle4266" cx="9" cy="1047.362" r="3"/><circle id="circle4281" cx="7" cy="1043.362" r="3" style="opacity:1;fill:red;fill-opacity:.39215686;stroke:none;stroke-width:4;stroke-linecap:round;stroke-linejoin:round;stroke-miterlimit:4;stroke-dasharray:none;stroke-dashoffset:0;stroke-opacity:1"/><circle style="opacity:1;fill:#00f;fill-opacity:.39215686;stroke:none;stroke-width:4;stroke-linecap:round;stroke-linejoin:round;stroke-miterlimit:4;stroke-dasharray:none;stroke-dashoffset:0;stroke-opacity:1" id="circle4283" cx="5" cy="1047.362" r="3"/><circle id="circle4285" cx="9" cy="1047.362" r="3" style="opacity:1;fill:#0f0;fill-opacity:.39215686;stroke:none;stroke-width:4;stroke-linecap:round;stroke-linejoin:round;stroke-miterlimit:4;stroke-dasharray:none;stroke-dashoffset:0;stroke-opacity:1"/></g></svg>