<svg xmlns="http://www.w3.org/2000/svg" xmlns:svg="http://www.w3.org/2000/svg" id="svg2" width="16" height="16" version="1.1" viewBox="0 0 16 16"><metadata id="metadata7"/><g id="layer1" transform="translate(0,-1036.3622)"><path style="opacity:1;fill:#a5efac;fill-opacity:1;stroke:none;stroke-width:2;stroke-linecap:round;stroke-linejoin:miter;stroke-miterlimit:4;stroke-dasharray:none;stroke-dashoffset:0;stroke-opacity:1" id="rect4139" d="M 1 3 L 1 11 L 15 11 L 15 3 L 1 3 z M 11 4 A 3 3 0 0 1 13.826172 6 L 11 6 A 1 1 0 0 0 10 7 A 1 1 0 0 0 11 8 L 13.824219 8 A 3 3 0 0 1 11 10 A 3 3 0 0 1 8.1757812 8 L 3 8 A 1 1 0 0 1 2 7 A 1 1 0 0 1 3 6 L 8.1738281 6 A 3 3 0 0 1 11 4 z" transform="translate(0,1036.3622)"/><rect style="opacity:1;fill:#a5efac;fill-opacity:1;stroke:none;stroke-width:2;stroke-linecap:round;stroke-linejoin:miter;stroke-miterlimit:4;stroke-dasharray:none;stroke-dashoffset:0;stroke-opacity:1" id="rect4160" width="14" height="2" x="1" y="-1049.362" transform="scale(1,-1)"/><rect id="rect4142" width="14" height="2" x="1" y="-1049.362" transform="scale(1,-1)" style="opacity:1;fill:#000;fill-opacity:.07843138;stroke:none;stroke-width:2;stroke-linecap:round;stroke-linejoin:miter;stroke-miterlimit:4;stroke-dasharray:none;stroke-dashoffset:0;stroke-opacity:1"/></g></svg>