<svg xmlns="http://www.w3.org/2000/svg" xmlns:svg="http://www.w3.org/2000/svg" id="svg2" width="16" height="16" version="1.1" viewBox="0 0 16 16"><metadata id="metadata7"/><g id="layer1" transform="translate(0,-1036.3622)"><path style="opacity:1;fill:#a5b7f8;fill-opacity:.98823529;stroke:none;stroke-width:3;stroke-linecap:round;stroke-linejoin:round;stroke-miterlimit:4;stroke-dasharray:none;stroke-dashoffset:0;stroke-opacity:1" id="rect4179" d="m 6.0000004,1040.3624 0,7 0,0.033 -2.4746094,-1.8086 c -0.520152,-0.3803 -1.1948017,-0.4556 -1.6503906,0 -0.4556596,0.4556 -0.4556116,1.1948 0,1.6504 l 4.125,4.125 5.9999996,0 c 1.104569,0 2,-0.8954 2,-2 l 0,-5 -5.9999996,0 0,-4 -2,0 z"/><circle style="opacity:1;fill:#a5b7f8;fill-opacity:.98823529;stroke:none;stroke-width:3;stroke-linecap:round;stroke-linejoin:round;stroke-miterlimit:4;stroke-dasharray:none;stroke-dashoffset:0;stroke-opacity:1" id="path4187" cx="7" cy="1040.362" r="1"/><rect style="opacity:1;fill:#a5b7f8;fill-opacity:.98823529;stroke:none;stroke-width:2;stroke-linecap:butt;stroke-linejoin:bevel;stroke-miterlimit:4;stroke-dasharray:none;stroke-dashoffset:0;stroke-opacity:.99607843" id="rect4226" width="2" height="1" x="3" y="1040.362"/><rect id="rect4228" width="8" height="1" x="3" y="1037.362" style="opacity:1;fill:#a5b7f8;fill-opacity:.98823529;stroke:none;stroke-width:2;stroke-linecap:butt;stroke-linejoin:bevel;stroke-miterlimit:4;stroke-dasharray:none;stroke-dashoffset:0;stroke-opacity:.99607843"/><rect id="rect4230" width="2" height="1" x="9" y="1040.362" style="opacity:1;fill:#a5b7f8;fill-opacity:.98823529;stroke:none;stroke-width:2;stroke-linecap:butt;stroke-linejoin:bevel;stroke-miterlimit:4;stroke-dasharray:none;stroke-dashoffset:0;stroke-opacity:.99607843"/><rect style="opacity:1;fill:#a5b7f8;fill-opacity:.98823529;stroke:none;stroke-width:2;stroke-linecap:butt;stroke-linejoin:bevel;stroke-miterlimit:4;stroke-dasharray:none;stroke-dashoffset:0;stroke-opacity:.99607843" id="rect4232" width="1" height="2" x="2" y="1038.362"/><rect id="rect4234" width="1" height="2" x="11" y="1038.362" style="opacity:1;fill:#a5b7f8;fill-opacity:.98823529;stroke:none;stroke-width:2;stroke-linecap:butt;stroke-linejoin:bevel;stroke-miterlimit:4;stroke-dasharray:none;stroke-dashoffset:0;stroke-opacity:.99607843"/><path style="opacity:1;fill:#a5b7f8;fill-opacity:.98823529;stroke:none;stroke-width:2;stroke-linecap:butt;stroke-linejoin:bevel;stroke-miterlimit:4;stroke-dasharray:none;stroke-dashoffset:0;stroke-opacity:.99607843" id="path4236" d="m 2,1038.3622 a 1,1 0 0 1 1,-1 1,1 0 0 1 1,1 l -1,0 z"/><path id="path4238" d="m -12,1038.3622 a 1,1 0 0 1 1,-1 1,1 0 0 1 1,1 l -1,0 z" transform="scale(-1,1)" style="opacity:1;fill:#a5b7f8;fill-opacity:.98823529;stroke:none;stroke-width:2;stroke-linecap:butt;stroke-linejoin:bevel;stroke-miterlimit:4;stroke-dasharray:none;stroke-dashoffset:0;stroke-opacity:.99607843"/><path style="opacity:1;fill:#a5b7f8;fill-opacity:.98823529;stroke:none;stroke-width:2;stroke-linecap:butt;stroke-linejoin:bevel;stroke-miterlimit:4;stroke-dasharray:none;stroke-dashoffset:0;stroke-opacity:.99607843" id="path4240" d="m -12,-1040.3622 a 1,1 0 0 1 1,-1 1,1 0 0 1 1,1 l -1,0 z" transform="scale(-1,-1)"/><path id="path4242" d="m -4,-1040.3622 a 1,1 0 0 1 1,-1 1,1 0 0 1 1,1 l -1,0 z" transform="scale(-1,-1)" style="opacity:1;fill:#a5b7f8;fill-opacity:.98823529;stroke:none;stroke-width:2;stroke-linecap:butt;stroke-linejoin:bevel;stroke-miterlimit:4;stroke-dasharray:none;stroke-dashoffset:0;stroke-opacity:.99607843"/></g></svg>