<svg xmlns="http://www.w3.org/2000/svg" xmlns:svg="http://www.w3.org/2000/svg" id="svg2" width="14" height="14" version="1.1" viewBox="0 0 14 14"><metadata id="metadata7"/><g id="layer1" transform="translate(0,-1038.3622)"><path style="opacity:1;fill:#eae068;fill-opacity:1;stroke:none;stroke-width:2;stroke-linecap:round;stroke-linejoin:round;stroke-miterlimit:4;stroke-dasharray:none;stroke-dashoffset:0;stroke-opacity:1" id="rect4147" d="M 2 0 C 0.8954305 0 0 0.8954 0 2 L 0 12 C 0 13.1046 0.8954305 14 2 14 L 12 14 C 13.104569 14 14 13.1046 14 12 L 14 2 C 14 0.8954 13.104569 0 12 0 L 2 0 z M 2 2 L 12 2 L 12 12 L 2 12 L 2 2 z M 11 4 L 7 8 L 5 6 L 3 9 L 11 9 L 11 4 z" transform="translate(0,1038.3622)"/></g></svg>