<svg xmlns="http://www.w3.org/2000/svg" xmlns:svg="http://www.w3.org/2000/svg" id="svg2" width="16" height="16" version="1.1" viewBox="0 0 16 16"><metadata id="metadata7"/><g id="layer1" transform="translate(0,-1036.3622)"><path style="opacity:1;fill:#a5efac;fill-opacity:1;stroke:none;stroke-width:2;stroke-linecap:round;stroke-linejoin:miter;stroke-miterlimit:4;stroke-dasharray:none;stroke-dashoffset:0;stroke-opacity:1" id="rect4139" d="M 1 3 L 1 11 L 15 11 L 15 3 L 1 3 z M 4 5 L 7 5 L 7 9 L 4 9 L 4 5 z M 9 5 L 10 5 L 10 6 L 11 6 L 11 5 L 12 5 L 12 6 L 11 6 L 11 7 L 12 7 L 12 9 L 11 9 L 11 7 L 10 7 L 10 9 L 9 9 L 9 5 z M 5 6 L 5 8 L 6 8 L 6 6 L 5 6 z" transform="translate(0,1036.3622)"/><rect style="opacity:1;fill:#a5efac;fill-opacity:1;stroke:none;stroke-width:2;stroke-linecap:round;stroke-linejoin:miter;stroke-miterlimit:4;stroke-dasharray:none;stroke-dashoffset:0;stroke-opacity:1" id="rect4160" width="14" height="2" x="1" y="-1049.362" transform="scale(1,-1)"/><rect id="rect4142" width="14" height="2" x="1" y="-1049.362" transform="scale(1,-1)" style="opacity:1;fill:#000;fill-opacity:.07843138;stroke:none;stroke-width:2;stroke-linecap:round;stroke-linejoin:miter;stroke-miterlimit:4;stroke-dasharray:none;stroke-dashoffset:0;stroke-opacity:1"/></g></svg>